<?xml version="1.0" encoding="UTF-8" standalone="no"?>
<!DOCTYPE svg  PUBLIC '-//W3C//DTD SVG 1.1//EN'  'http://www.w3.org/Graphics/SVG/1.1/DTD/svg11.dtd'>
<svg xmlns="http://www.w3.org/2000/svg">
<defs>
<font id="HelveticaNeueLTW1G-BdCn" horiz-adv-x="480">
<font-face underline-position="-50" font-weight="700" descent="-200" panose-1="2 11 7 6 3 5 2 3 2 4" units-per-em="1000" unicode-range="U+0020-25CA" font-stretch="condensed" bbox="-164 -217 1066 954" x-height="538" underline-thickness="50" font-family="HelveticaNeueLTW1G" ascent="800" cap-height="712"/>
<missing-glyph horiz-adv-x="1000"/>
<glyph glyph-name=".notdef" horiz-adv-x="1000"/>
<glyph glyph-name=".null" horiz-adv-x="1000"/>
<glyph glyph-name="nonmarkingreturn" horiz-adv-x="333"/>
<glyph glyph-name="space" horiz-adv-x="240" unicode=" "/>
<glyph glyph-name="exclam" horiz-adv-x="296" unicode="!" d="M198 199h-100l-19 283v232h138v-232zM79 132h138v-132h-138v132z"/>
<glyph glyph-name="quotedbl" horiz-adv-x="463" unicode='&quot;' d="M267 393v321h124v-321h-124zM72 393v321h124v-321h-124z"/>
<glyph glyph-name="numbersign" d="M0 174v112h87l16 122h-73v112h86l22 174h96l-21 -174h97l22 174h97l-22 -174h73v-112h-86l-16 -122h73v-112h-86l-22 -174h-97l22 174h-98l-21 -174h-97l22 174h-74zM199 408l-15 -122h97l16 122h-98z" unicode="#"/>
<glyph glyph-name="dollar" d="M269 269v-177q58 13 58 80q0 37 -14 59t-44 38zM205 442v160q-49 -14 -49 -76q0 -56 49 -84zM205 -101v87q-60 5 -100 22.5t-60 46.5t-28 61t-8 75v21h138q0 -51 11 -81t47 -39v202l-50 18q-137 49 -137 192q0 91 48.5 142.5t138.5 61.5v69h64v-69q185 -16 185 -189v-14 h-138q-2 83 -47 97v-189l79 -32q63 -27 93 -65t30 -116q0 -106 -50 -156.5t-152 -57.5v-87h-64z" unicode="$"/>
<glyph glyph-name="percent" horiz-adv-x="778" unicode="%" d="M557 181q0 -66 8 -92.5t36 -26.5t36 26.5t8 92.5q0 61 -8 86t-36 25t-36 -25t-8 -86zM451 177q0 103 30.5 147t119.5 44t119.5 -44t30.5 -147t-30.5 -147t-119.5 -44t-119.5 44t-30.5 147zM27 517q0 103 30.5 147t119.5 44t119.5 -44t30.5 -147t-30.5 -147t-119.5 -44 t-119.5 44t-30.5 147zM133 521q0 -66 8 -92.5t36 -26.5t36 26.5t8 92.5q0 61 -8 86t-36 25t-36 -25t-8 -86zM140 -31l406 756h89l-406 -756h-89z"/>
<glyph glyph-name="ampersand" horiz-adv-x="593" unicode="&amp;" d="M201 568q0 -30 36 -78l17 -24l26 22q45 38 45 78q0 29 -17.5 44.5t-45.5 15.5q-27 0 -44 -15.5t-17 -42.5zM343 143l-120 170q-40 -32 -56.5 -59.5t-16.5 -61.5q0 -36 27 -65t73 -29q57 0 93 45zM319 380l107 -145q25 52 25 108h124q0 -107 -73 -211l94 -132h-153l-40 55 q-58 -69 -172 -69q-64 0 -109.5 20t-68 53.5t-32 66t-9.5 66.5q0 115 144 206l-25 37q-29 42 -38.5 69t-9.5 60q0 68 50.5 109t131.5 41q88 0 133 -41.5t45 -107.5q0 -53 -29.5 -96t-94.5 -89z"/>
<glyph glyph-name="quotesingle" horiz-adv-x="260" unicode="&apos;" d="M68 393v321h124v-321h-124z"/>
<glyph glyph-name="parenleft" horiz-adv-x="296" unicode="(" d="M190 714h106q-62 -114 -88 -217.5t-26 -231.5t26 -231.5t88 -217.5h-106q-140 222 -140 449t140 449z"/>
<glyph glyph-name="parenright" horiz-adv-x="296" unicode=")" d="M0 714h106q140 -222 140 -449t-140 -449h-106q62 114 88 217.5t26 231.5t-26 231.5t-88 217.5z"/>
<glyph glyph-name="asterisk" horiz-adv-x="390" unicode="*" d="M154 714h82v-128l122 40l25 -78l-122 -40l76 -104l-67 -48l-75 104l-75 -104l-67 48l76 104l-122 40l25 78l122 -40v128z"/>
<glyph glyph-name="plus" horiz-adv-x="600" unicode="+" d="M238 0v191h-191v124h191v191h124v-191h191v-124h-191v-191h-124z"/>
<glyph glyph-name="comma" horiz-adv-x="240" unicode="," d="M54 156h132v-130q0 -88 -28.5 -135.5t-103.5 -55.5v70q25 5 38.5 27.5t13.5 51.5v16h-52v156z"/>
<glyph glyph-name="hyphen" horiz-adv-x="370" unicode="-" d="M44 348h282v-118h-282v118z"/>
<glyph glyph-name="period" horiz-adv-x="240" unicode="." d="M54 156h132v-156h-132v156z"/>
<glyph glyph-name="slash" horiz-adv-x="332" unicode="/" d="M-3 -14l226 742h112l-226 -742h-112z"/>
<glyph glyph-name="zero" d="M162 376v-77q0 -133 16 -176t62 -43q47 0 62.5 49.5t15.5 188.5v77q0 133 -16 176t-62 43q-47 0 -62.5 -49.5t-15.5 -188.5zM18 330q0 50 1 83.5t6 76.5t14 71.5t25 58.5t39.5 47.5t58 29t78.5 11.5q127 0 174.5 -76.5t47.5 -267.5q0 -50 -1 -83.5t-6 -76.5t-14 -71.5 t-25 -58.5t-39.5 -47.5t-58 -29t-78.5 -11.5q-127 0 -174.5 76.5t-47.5 267.5z" unicode="0"/>
<glyph glyph-name="one" d="M326 0h-144v500h-141v94h13q144 0 166 114h106v-708z" unicode="1"/>
<glyph glyph-name="two" d="M454 112v-112h-436q0 92 37.5 163.5t118.5 146.5l58 54q46 43 60 75t14 87q0 88 -70 88q-34 0 -52.5 -20.5t-23 -47t-4.5 -70.5h-138v27q0 205 220 205q106 0 159 -49.5t53 -143.5q0 -68 -25 -119t-85 -106l-80 -74q-60 -55 -73 -104h267z" unicode="2"/>
<glyph glyph-name="three" d="M20 207h138q1 -67 17.5 -97t61.5 -30q47 0 63 29.5t16 84.5q0 56 -19.5 88.5t-73.5 32.5h-48v94h47q42 0 62 32t20 80q0 50 -16.5 71.5t-52.5 21.5q-43 0 -58 -29t-15 -86h-132q0 209 208 209q204 0 204 -182q0 -63 -28.5 -104t-79.5 -52v-2q126 -21 126 -167 q0 -40 -10 -74.5t-33.5 -68t-72.5 -53t-119 -19.5q-101 0 -153 57t-52 161v3z" unicode="3"/>
<glyph glyph-name="four" d="M266 259v269h-2l-138 -269h140zM14 147v118l235 443h149v-449h68v-112h-68v-147h-132v147h-252z" unicode="4"/>
<glyph glyph-name="five" d="M425 694v-112h-261l-15 -161h2q39 53 130 53q49 0 84 -19t53.5 -52.5t27 -71.5t8.5 -83q0 -128 -49.5 -195t-177.5 -67q-52 0 -91 13t-61 33t-35.5 47.5t-17.5 52t-4 51.5v19h138q0 -116 70 -116q84 0 84 138q0 87 -17.5 118.5t-65.5 31.5q-60 0 -68 -65h-129l26 385h369 z" unicode="5"/>
<glyph glyph-name="six" d="M449 528h-138q0 86 -65 86q-28 0 -46 -13t-27 -39t-12 -55.5t-3 -72.5v-35h2q40 61 133 61q89 0 131 -59.5t42 -161.5q0 -253 -229 -253q-57 0 -99 18.5t-65.5 47.5t-37 74.5t-17.5 89t-4 101.5q0 42 0.5 66.5t2.5 62.5t6.5 61.5t13 54.5t20 49.5t29.5 39t41.5 31.5 t55 18.5t69.5 7.5q85 0 140 -42.5t57 -137.5zM165 220q0 -69 16 -104.5t63 -35.5t62.5 35t15.5 105q0 72 -18 103t-60 31q-43 0 -61 -31t-18 -103z" unicode="6"/>
<glyph glyph-name="seven" d="M22 694h436v-110q-84 -118 -136.5 -271.5t-71.5 -312.5h-151q39 321 221 570h-298v124z" unicode="7"/>
<glyph glyph-name="eight" d="M14 200q0 69 31 116t89 59v2q-53 13 -77.5 52.5t-24.5 83.5q0 195 208 195t208 -195q0 -44 -25 -83.5t-77 -52.5v-2q58 -12 89 -59t31 -116q0 -28 -4.5 -53.5t-19 -56t-38 -52.5t-66 -37t-98.5 -15t-98.5 15t-66 37t-38 52.5t-19 56t-4.5 53.5zM170 517q0 -99 70 -99 t70 99q0 97 -70 97t-70 -97zM158 202q0 -122 82 -122t82 122t-82 122t-82 -122z" unicode="8"/>
<glyph glyph-name="nine" d="M31 165h138q0 -85 65 -85q28 0 46 13t27 39t12 55.5t3 72.5v34h-2q-40 -60 -133 -60q-89 0 -131 59.5t-42 161.5q0 253 229 253q57 0 98.5 -18.5t65 -47.5t37.5 -74.5t18 -89t4 -101.5q0 -37 -0.5 -60t-2 -57.5t-5 -56t-9 -50.5t-15 -47.5t-22 -39.5t-30.5 -34t-40 -24.5 t-51 -16.5t-63 -5q-86 0 -140.5 42t-56.5 137zM158 474q0 -72 18 -103t60 -31q43 0 61 31t18 103q0 69 -16 104.5t-63 35.5t-62.5 -35t-15.5 -105z" unicode="9"/>
<glyph glyph-name="colon" horiz-adv-x="240" unicode=":" d="M54 0v156h132v-156h-132zM54 365v156h132v-156h-132z"/>
<glyph glyph-name="semicolon" horiz-adv-x="240" unicode=";" d="M54 156h132v-130q0 -88 -28.5 -135.5t-103.5 -55.5v70q25 5 38.5 27.5t13.5 51.5v16h-52v156zM54 521h132v-156h-132v156z"/>
<glyph glyph-name="less" horiz-adv-x="600" unicode="&lt;" d="M47 200v106l506 208v-124l-338 -137l338 -137v-124z"/>
<glyph glyph-name="equal" horiz-adv-x="600" unicode="=" d="M47 300v124h506v-124h-506zM47 82v124h506v-124h-506z"/>
<glyph glyph-name="greater" horiz-adv-x="600" unicode="&gt;" d="M47 -8v124l338 137l-338 137v124l506 -208v-106z"/>
<glyph glyph-name="question" horiz-adv-x="481" unicode="?" d="M168 493h-132v23q0 93 51 149.5t147 56.5q103 0 157 -51.5t54 -141.5q0 -84 -63 -156l-40 -45q-28 -31 -38.5 -54.5t-10.5 -60.5v-15h-124v39q0 49 14 83.5t48 73.5l38 43q38 42 38 106q0 39 -17.5 62t-50.5 23q-71 0 -71 -110v-25zM162 132h138v-132h-138v132z"/>
<glyph glyph-name="at" horiz-adv-x="800" unicode="@" d="M299 326q0 -34 20 -57.5t51 -23.5q49 0 82.5 40t33.5 88q0 32 -22 54t-53 22q-46 0 -79 -39.5t-33 -83.5zM522 488l13 53h88l-58 -250q-6 -29 -6 -41q0 -20 20 -20q34 0 69 50.5t35 123.5q0 98 -79.5 164t-186.5 66q-115 0 -195.5 -84t-80.5 -194q0 -114 84 -195t199 -81 q110 0 217 64h89q-112 -158 -330 -158q-154 0 -262.5 108.5t-108.5 262.5t108.5 262.5t262.5 108.5t262.5 -84.5t108.5 -218.5q0 -60 -20 -110.5t-49.5 -82t-65 -53.5t-65.5 -31t-51 -9q-60 0 -65 53h-2q-51 -53 -120 -53q-57 0 -101.5 47t-44.5 123q0 97 60 171.5t154 74.5 q80 0 121 -67z"/>
<glyph glyph-name="A" horiz-adv-x="556" unicode="A" d="M0 0l189 714h178l189 -714h-150l-33 151h-190l-33 -151h-150zM277 590l-69 -321h140l-69 321h-2z"/>
<glyph glyph-name="B" horiz-adv-x="556" unicode="B" d="M50 0v714h241q203 0 203 -181q0 -59 -27.5 -100t-80.5 -56v-2q61 -8 95.5 -51.5t34.5 -114.5q0 -93 -52.5 -151t-170.5 -58h-243zM194 608v-187h41q61 0 88 21.5t27 72.5q0 50 -24.5 71.5t-79.5 21.5h-52zM194 321v-215h56q56 0 86 24.5t30 83.5q0 107 -110 107h-62z"/>
<glyph glyph-name="C" horiz-adv-x="537" unicode="C" d="M499 473h-144q0 80 -19 114.5t-67 34.5q-53 0 -71.5 -59.5t-18.5 -215.5q0 -106 10.5 -162.5t29.5 -74.5t52 -18q44 0 67 37t23 144h144q0 -64 -9.5 -111.5t-33 -89.5t-70 -64t-114.5 -22q-63 0 -108 18.5t-71 48.5t-40.5 80.5t-19 100.5t-4.5 123t4.5 123t19 100.5 t40.5 80.5t71 48.5t108 18.5q59 0 102 -17.5t65 -41.5t35 -62t16 -67t3 -67z"/>
<glyph glyph-name="D" horiz-adv-x="574" unicode="D" d="M57 0v714h236q73 0 120.5 -23.5t72.5 -72t34 -107t9 -144.5q0 -196 -53 -281.5t-192 -85.5h-227zM201 608v-502h64q73 0 96.5 53.5t23.5 203.5q0 67 -4 107.5t-16.5 74.5t-37.5 48.5t-65 14.5h-61z"/>
<glyph glyph-name="E" horiz-adv-x="481" unicode="E" d="M50 714h399v-118h-255v-168h240v-118h-240v-192h265v-118h-409v714z"/>
<glyph glyph-name="F" horiz-adv-x="463" unicode="F" d="M50 0v714h399v-118h-255v-168h240v-118h-240v-310h-144z"/>
<glyph glyph-name="G" horiz-adv-x="556" unicode="G" d="M505 502h-138q0 46 -20.5 83t-61.5 37q-52 0 -75 -58t-23 -192q0 -143 20.5 -211.5t78.5 -68.5q31 0 60 30.5t29 83.5v73h-95v106h233v-385h-106v66h-2q-50 -80 -150 -80q-65 0 -107.5 23.5t-65 74.5t-31 116.5t-8.5 164.5q0 188 53.5 275.5t186.5 87.5q115 0 168.5 -57 t53.5 -169z"/>
<glyph glyph-name="H" horiz-adv-x="556" unicode="H" d="M50 0v714h144v-273h168v273h144v-714h-144v317h-168v-317h-144z"/>
<glyph glyph-name="I" horiz-adv-x="258" unicode="I" d="M201 0h-144v714h144v-714z"/>
<glyph glyph-name="J" horiz-adv-x="463" unicode="J" d="M275 714h144v-514q0 -113 -52.5 -163.5t-162.5 -50.5q-105 0 -147 56.5t-42 152.5v31h132v-22q0 -60 13.5 -86t50.5 -26t50.5 26t13.5 86v510z"/>
<glyph glyph-name="K" horiz-adv-x="537" unicode="K" d="M50 714h144v-286h2l182 286h156l-194 -306l216 -408h-162l-147 293l-53 -81v-212h-144v714z"/>
<glyph glyph-name="L" horiz-adv-x="463" unicode="L" d="M449 0h-399v714h144v-596h255v-118z"/>
<glyph glyph-name="M" horiz-adv-x="740" unicode="M" d="M53 0v714h214l102 -504h2l103 504h213v-714h-132v570h-2l-127 -570h-112l-127 570h-2v-570h-132z"/>
<glyph glyph-name="N" horiz-adv-x="574" unicode="N" d="M50 714h166l174 -489h2v489h132v-714h-164l-176 500h-2v-500h-132v714z"/>
<glyph glyph-name="O" horiz-adv-x="556" unicode="O" d="M179 357q0 -152 19 -208.5t80 -56.5t80 56.5t19 208.5q0 151 -19 208t-80 57t-80 -57t-19 -208zM35 357q0 73 4.5 123t19 100.5t40.5 80.5t71 48.5t108 18.5t108 -18.5t71 -48.5t40.5 -80.5t19 -100.5t4.5 -123t-4.5 -123t-19 -100.5t-40.5 -80.5t-71 -48.5t-108 -18.5 t-108 18.5t-71 48.5t-40.5 80.5t-19 100.5t-4.5 123z"/>
<glyph glyph-name="P" horiz-adv-x="519" unicode="P" d="M50 0v714h252q102 0 149 -61.5t47 -152.5q0 -108 -60.5 -161.5t-166.5 -53.5h-77v-285h-144zM194 608v-217h64q44 0 70 27t26 80q0 110 -100 110h-60z"/>
<glyph glyph-name="Q" horiz-adv-x="556" unicode="Q" d="M543 -11l-85 -77l-85 88q-23 -8 -44 -11q-23 -3 -51 -3q-63 0 -108 18.5t-71 48.5t-40.5 80.5t-19 100.5t-4.5 123t4.5 123t19 100.5t40.5 80.5t71 48.5t108 18.5t108 -18.5t71 -48.5t40.5 -80.5t19 -100.5t4.5 -123q0 -104 -11 -173.5t-44 -116.5zM179 357 q0 -152 19 -208.5t80 -56.5t80 56.5t19 208.5q0 151 -19 208t-80 57t-80 -57t-19 -208z"/>
<glyph glyph-name="R" horiz-adv-x="556" unicode="R" d="M194 608v-206h60q108 0 108 107q0 99 -100 99h-68zM50 0v714h266q91 0 140.5 -46.5t49.5 -137.5q0 -151 -119 -176v-2q70 -9 91.5 -53.5t23.5 -164.5q1 -62 7 -89.5t25 -38.5v-6h-156q-15 20 -19 97l-3 115q-3 90 -85 90h-77v-302h-144z"/>
<glyph glyph-name="S" horiz-adv-x="519" unicode="S" d="M22 223h144v-21q0 -55 20.5 -82.5t74.5 -27.5q36 0 61 23t25 65q0 69 -54 91l-107 43q-81 32 -117.5 79t-36.5 125q0 103 58 156.5t163 53.5q102 0 161.5 -47t59.5 -145v-20h-138q0 106 -78 106q-82 0 -82 -83q0 -35 15 -56.5t59 -40.5l111 -48q78 -35 107 -77.5 t29 -111.5q0 -219 -248 -219q-119 0 -173 53t-54 155v29z"/>
<glyph glyph-name="T" d="M12 714h456v-118h-156v-596h-144v596h-156v118z" unicode="T"/>
<glyph glyph-name="U" horiz-adv-x="538" unicode="U" d="M41 714h144v-498q0 -59 18 -91.5t66 -32.5t66 32.5t18 91.5v498h144v-498q0 -65 -18.5 -111.5t-52 -71.5t-72 -36t-85.5 -11q-48 0 -85.5 9.5t-71.5 33.5t-52.5 71t-18.5 116v498z"/>
<glyph glyph-name="V" horiz-adv-x="519" unicode="V" d="M3 714h154l101 -528h3l106 528h149l-164 -714h-185z"/>
<glyph glyph-name="W" horiz-adv-x="760" unicode="W" d="M138 0l-130 714h138l79 -528h2l84 528h138l84 -528h2l79 528h138l-130 -714h-161l-80 518h-2l-80 -518h-161z"/>
<glyph glyph-name="X" horiz-adv-x="537" unicode="X" d="M184 361l-164 353h159l92 -231l91 231h157l-166 -353l178 -361h-162l-103 242l-102 -242h-158z"/>
<glyph glyph-name="Y" horiz-adv-x="520" unicode="Y" d="M3 714h162l94 -276h2l100 276h156l-185 -433v-281h-144v281z"/>
<glyph glyph-name="Z" horiz-adv-x="481" unicode="Z" d="M24 0v105l263 491h-245v118h411v-109l-267 -487h271v-118h-433z"/>
<glyph glyph-name="bracketleft" horiz-adv-x="315" unicode="[" d="M80 -184v898h229v-100h-105v-698h105v-100h-229z"/>
<glyph glyph-name="backslash" horiz-adv-x="332" unicode="\" d="M223 -14l-226 742h112l226 -742h-112z"/>
<glyph glyph-name="bracketright" horiz-adv-x="315" unicode="]" d="M6 -184v100h105v698h-105v100h229v-898h-229z"/>
<glyph glyph-name="asciicircum" horiz-adv-x="600" unicode="^" d="M180 309h-124l188 385h112l188 -385h-124l-120 247z"/>
<glyph glyph-name="underscore" horiz-adv-x="500" unicode="_" d="M500 -125h-500v50h500v-50z"/>
<glyph glyph-name="grave" horiz-adv-x="222" unicode="`" d="M176 602h-94l-98 144h138z"/>
<glyph glyph-name="a" horiz-adv-x="481" unicode="a" d="M297 163v108q-19 -15 -47 -25l-30 -11q-36 -13 -48 -32t-12 -48q0 -33 13 -54t39 -21q33 0 59 21t26 62zM169 373h-124v13q0 87 52 126.5t137 39.5q114 0 154.5 -41.5t40.5 -123.5v-283q0 -62 17 -104h-132q-9 16 -17 56h-2q-23 -41 -54 -55.5t-83 -14.5q-66 0 -98 46 t-32 108q0 75 32.5 111.5t111.5 58.5l63 17q36 10 49 24t13 41q0 66 -64 66t-64 -70v-15z"/>
<glyph glyph-name="b" horiz-adv-x="500" unicode="b" d="M184 269q0 -94 15 -135.5t58 -41.5t57.5 41.5t14.5 135.5t-14.5 135.5t-57.5 41.5t-58 -41.5t-15 -135.5zM46 0v714h138v-226h2q43 64 116 64q85 0 125 -67t40 -216t-40 -216t-125 -67q-79 0 -122 71h-2v-57h-132z"/>
<glyph glyph-name="c" horiz-adv-x="463" unicode="c" d="M437 344h-132q0 108 -62 108q-48 0 -63.5 -41.5t-15.5 -142.5q0 -104 15 -146t59 -42q35 0 51 30t16 96h132q0 -109 -49 -164.5t-156 -55.5t-156.5 63t-49.5 220q0 156 56.5 219.5t161.5 63.5q94 0 143.5 -55t49.5 -153z"/>
<glyph glyph-name="d" horiz-adv-x="500" unicode="d" d="M171 269q0 -94 14.5 -135.5t57.5 -41.5t58 41.5t15 135.5t-15 135.5t-58 41.5t-57.5 -41.5t-14.5 -135.5zM322 0v57h-2q-43 -71 -122 -71q-85 0 -125 67t-40 216t40 216t125 67q73 0 116 -64h2v226h138v-714h-132z"/>
<glyph glyph-name="e" horiz-adv-x="463" unicode="e" d="M164 330h141q-2 68 -16 98t-54 30q-38 0 -54.5 -31t-16.5 -76v-21zM437 248h-273v-43q0 -54 16 -89.5t52 -35.5q34 0 50.5 24t22.5 77h124q-8 -195 -195 -195q-42 0 -74.5 9.5t-54 23.5t-37 38.5t-23.5 46.5t-12.5 55t-5.5 56.5t-1 58.5q0 48 4 85t17.5 75t36.5 62.5 t62.5 40t93.5 15.5q113 0 155 -68.5t42 -204.5v-31z"/>
<glyph glyph-name="f" horiz-adv-x="296" unicode="f" d="M76 0v444h-70v94h70v61q0 70 36.5 99.5t107.5 29.5q36 0 74 -3v-98q-11 1 -27 1q-29 0 -41 -10t-12 -33v-47h80v-94h-80v-444h-138z"/>
<glyph glyph-name="g" horiz-adv-x="500" unicode="g" d="M317 538h132v-511q0 -109 -52.5 -160t-171.5 -51q-88 0 -135.5 37.5t-47.5 106.5h132q0 -26 21 -41q22 -15 46 -15q76 0 76 97v71h-2q-46 -66 -115 -66q-84 0 -124.5 64t-40.5 208q0 55 6 97.5t22.5 85.5t52 67t88.5 24q75 0 111 -74h2v60zM173 252q0 -65 14.5 -102.5 t54.5 -37.5q42 0 58.5 40t16.5 114q0 100 -15.5 140t-56.5 40q-44 0 -58 -40.5t-14 -153.5z"/>
<glyph glyph-name="h" horiz-adv-x="500" unicode="h" d="M46 0v714h138v-231h2q40 69 131 69q137 0 137 -153v-399h-138v371q0 41 -14 58t-45 17q-73 0 -73 -89v-357h-138z"/>
<glyph glyph-name="i" horiz-adv-x="240" unicode="i" d="M51 0v538h138v-538h-138zM51 604v118h138v-118h-138z"/>
<glyph glyph-name="j" horiz-adv-x="240" unicode="j" d="M51 10v528h138v-575q0 -72 -34.5 -105.5t-123.5 -33.5q-16 0 -56 2v100q11 -2 22 -2q35 0 44.5 18.5t9.5 67.5zM51 604v118h138v-118h-138z"/>
<glyph glyph-name="k" horiz-adv-x="500" unicode="k" d="M51 714h138v-377h2l139 201h152l-155 -212l178 -326h-152l-115 221l-49 -64v-157h-138v714z"/>
<glyph glyph-name="l" horiz-adv-x="240" unicode="l" d="M51 0v714h138v-714h-138z"/>
<glyph glyph-name="m" horiz-adv-x="758" unicode="m" d="M46 0v538h132v-55h2q49 69 136 69q101 0 124 -86h2q32 86 136 86q134 0 134 -161v-391h-138v376q0 70 -54 70q-72 0 -72 -92v-354h-138v376q0 70 -54 70q-72 0 -72 -92v-354h-138z"/>
<glyph glyph-name="n" horiz-adv-x="500" unicode="n" d="M46 0v538h132v-63h2q42 77 137 77q137 0 137 -153v-399h-138v371q0 41 -14 58t-45 17q-73 0 -73 -89v-357h-138z"/>
<glyph glyph-name="o" d="M166 269q0 -48 2 -77t9 -57.5t22.5 -41.5t40.5 -13q41 0 57.5 43t16.5 146t-16.5 146t-57.5 43q-25 0 -40.5 -13t-22.5 -41.5t-9 -57.5t-2 -77zM28 269q0 143 49 213t163 70h7q115 0 160 -68.5t45 -214.5q0 -143 -49 -213t-163 -70h-7q-115 0 -160 68.5t-45 214.5z" unicode="o"/>
<glyph glyph-name="p" horiz-adv-x="500" unicode="p" d="M184 269q0 -94 15 -135.5t58 -41.5t57.5 41.5t14.5 135.5t-14.5 135.5t-57.5 41.5t-58 -41.5t-15 -135.5zM46 -176v714h132v-57h2q43 71 122 71q85 0 125 -67t40 -216t-40 -216t-125 -67q-73 0 -116 64h-2v-226h-138z"/>
<glyph glyph-name="q" horiz-adv-x="500" unicode="q" d="M316 269q0 94 -15 135.5t-58 41.5t-57.5 -41.5t-14.5 -135.5t14.5 -135.5t57.5 -41.5t58 41.5t15 135.5zM316 -176v226h-2q-43 -64 -116 -64q-85 0 -125 67t-40 216t40 216t125 67q79 0 122 -71h2v57h132v-714h-138z"/>
<glyph glyph-name="r" horiz-adv-x="333" unicode="r" d="M46 0v538h132v-72h2q46 86 124 86q9 0 25 -2v-132q-30 2 -43 2q-42 0 -72 -23.5t-30 -73.5v-323h-138z"/>
<glyph glyph-name="s" horiz-adv-x="444" unicode="s" d="M23 176h124v-18q0 -36 18.5 -57t53.5 -21q70 0 70 64q0 42 -50 61l-97 35q-115 41 -115 150q0 71 49 116.5t149 45.5q184 0 184 -153v-22h-124q0 42 -14 61.5t-47 19.5q-28 0 -46.5 -15t-18.5 -43q0 -44 60 -63l83 -28q65 -22 92 -57.5t27 -96.5q0 -82 -55 -125.5 t-145 -43.5q-111 0 -154.5 43.5t-43.5 127.5v19z"/>
<glyph glyph-name="t" horiz-adv-x="296" unicode="t" d="M76 538v154h138v-154h80v-94h-80v-291q0 -33 10 -46t39 -13q13 0 31 2v-96q-62 -6 -90 -6q-79 0 -103.5 29t-24.5 113v308h-70v94h70z"/>
<glyph glyph-name="u" horiz-adv-x="500" unicode="u" d="M322 0v63h-2q-42 -77 -137 -77q-137 0 -137 153v399h138v-371q0 -41 14 -58t45 -17q73 0 73 89v357h138v-538h-132z"/>
<glyph glyph-name="v" horiz-adv-x="444" unicode="v" d="M228 153l73 385h138l-135 -538h-160l-139 538h144l77 -385h2z"/>
<glyph glyph-name="w" horiz-adv-x="704" unicode="w" d="M124 0l-117 538h138l63 -382h2l67 382h150l71 -382h2l65 382h132l-116 -538h-157l-71 382h-2l-67 -382h-160z"/>
<glyph glyph-name="x" horiz-adv-x="462" unicode="x" d="M231 376l74 162h144l-140 -261l146 -277h-144l-80 176l-80 -176h-144l146 277l-140 261h144z"/>
<glyph glyph-name="y" horiz-adv-x="444" unicode="y" d="M46 -176v103q18 -3 36 -3q68 0 74 76l-151 538h144l80 -372h2l70 372h138l-130 -502q-19 -73 -34.5 -112t-39.5 -63t-53 -30.5t-80 -6.5h-56z"/>
<glyph glyph-name="z" horiz-adv-x="426" unicode="z" d="M24 0v106l215 320h-205v112h368v-106l-215 -320h215v-112h-378z"/>
<glyph glyph-name="braceleft" horiz-adv-x="315" unicode="{" d="M30 224v82q26 0 46 23.5t20 57.5v193q0 64 26.5 99t77.5 35h89v-100h-30q-39 0 -39 -72v-166q0 -45 -19.5 -74.5t-52.5 -35.5v-2q33 -6 52.5 -35.5t19.5 -74.5v-166q0 -72 39 -72h30v-100h-89q-51 0 -77.5 35t-26.5 99v193q0 34 -20 57.5t-46 23.5z"/>
<glyph glyph-name="bar" horiz-adv-x="222" unicode="|" d="M49 -14v742h124v-742h-124z"/>
<glyph glyph-name="braceright" horiz-adv-x="315" unicode="}" d="M26 -184v100h30q39 0 39 72v166q0 45 19.5 74.5t52.5 35.5v2q-33 6 -52.5 35.5t-19.5 74.5v166q0 72 -39 72h-30v100h89q51 0 77.5 -35t26.5 -99v-193q0 -34 20 -57.5t46 -23.5v-82q-26 0 -46 -23.5t-20 -57.5v-193q0 -64 -26.5 -99t-77.5 -35h-89z"/>
<glyph glyph-name="asciitilde" horiz-adv-x="600" unicode="~" d="M495 349l36 -106q-46 -86 -123 -86q-52 0 -118 34t-95 34q-27 0 -53.5 -23t-36.5 -45l-36 106q46 86 123 86q53 0 109 -29q74 -39 104 -39q27 0 53.5 23t36.5 45z"/>
<glyph glyph-name="uni00A0" horiz-adv-x="240" unicode=" "/>
<glyph glyph-name="exclamdown" horiz-adv-x="296" unicode="¡" d="M79 -176v232l19 283h100l19 -283v-232h-138zM79 406v132h138v-132h-138z"/>
<glyph glyph-name="cent" d="M222 86v366q-31 -11 -41 -53t-10 -128q0 -54 1.5 -83t13.5 -62t36 -40zM222 -102v88q-43 2 -75 15t-59 42.5t-41 85t-14 136.5q0 62 7.5 107.5t27 86.5t58 64.5t96.5 28.5v76h52v-76q173 -10 173 -204h-132q0 88 -41 104v-366q41 24 41 123h132q0 -102 -41 -157t-132 -66 v-88h-52z" unicode="¢"/>
<glyph glyph-name="sterling" d="M9 306v82h67q-45 87 -45 142q0 78 55 128t159 50q214 0 218 -207h-132q0 113 -78 113q-44 0 -64 -22.5t-20 -56.5q0 -37 26 -90l28 -57h167v-82h-141q5 -15 5 -39q0 -44 -20 -79t-70 -77l4 -2q16 7 45 7q13 0 54.5 -15t59.5 -15q40 0 104 42l44 -94q-73 -48 -149 -48 q-22 0 -86 18t-96 18q-42 0 -98 -28l-41 86q53 34 85 80.5t32 96.5q0 21 -11 49h-102z" unicode="£"/>
<glyph glyph-name="currency" d="M61 107l-61 62l50 50q-39 59 -39 128q0 70 39 128l-50 50l61 62l51 -50q58 39 128 39t128 -39l51 50l61 -62l-50 -50q39 -58 39 -128t-39 -128l50 -50l-61 -62l-51 51q-58 -40 -128 -40q-72 0 -128 40zM117 347q0 -60 33.5 -94.5t89.5 -34.5t89.5 34.5t33.5 94.5 t-33.5 94.5t-89.5 34.5t-89.5 -34.5t-33.5 -94.5z" unicode="¤"/>
<glyph glyph-name="yen" d="M178 0v159h-142v82h142v43l-11 23h-131v82h92l-145 305h149l107 -269h2l112 269h144l-145 -305h92v-82h-131l-11 -23v-43h142v-82h-142v-159h-124z" unicode="¥"/>
<glyph glyph-name="brokenbar" horiz-adv-x="222" unicode="¦" d="M49 -14v271h124v-271h-124zM49 457v271h124v-271h-124z"/>
<glyph glyph-name="section" horiz-adv-x="481" unicode="§" d="M38 37h132v-15q0 -37 19.5 -58.5t50.5 -21.5q33 0 49.5 19.5t16.5 47.5q0 53 -64 84l-123 62q-106 53 -106 151q0 47 24 84.5t66 58.5q-60 45 -60 114q0 85 56 125t149 40q97 0 143.5 -43.5t46.5 -118.5h-132q0 68 -69 68q-29 0 -45.5 -16t-16.5 -41q0 -38 64 -69 l119 -56q110 -52 110 -163q0 -39 -22 -81t-56 -61q54 -44 54 -124q0 -175 -204 -175q-100 0 -151 46t-51 128v15zM173 268q123 -64 134 -72q43 36 43 72q0 26 -15 44t-53 38l-96 51q-55 -32 -55 -72q0 -39 42 -61z"/>
<glyph glyph-name="dieresis" horiz-adv-x="222" unicode="¨" d="M-31 615v118h112v-118h-112zM141 615v118h112v-118h-112z"/>
<glyph glyph-name="copyright" horiz-adv-x="800" unicode="©" d="M495 298h100q-12 -73 -62.5 -114.5t-117.5 -41.5q-93 0 -150 62.5t-57 155.5q0 95 55 156.5t149 61.5q70 0 120 -40.5t59 -112.5h-96q-19 67 -88 67q-50 0 -77.5 -36.5t-27.5 -95.5q0 -56 28.5 -94t75.5 -38q37 0 60.5 19t28.5 51zM141 357q0 -110 74.5 -187.5 t184.5 -77.5t184.5 77.5t74.5 187.5t-74.5 187.5t-184.5 77.5t-184.5 -77.5t-74.5 -187.5zM29 357q0 154 108.5 262.5t262.5 108.5t262.5 -108.5t108.5 -262.5t-108.5 -262.5t-262.5 -108.5t-262.5 108.5t-108.5 262.5z"/>
<glyph glyph-name="ordfeminine" horiz-adv-x="314" unicode="ª" d="M293 609v-172q0 -39 11 -63h-100q-3 4 -11 35q-17 -25 -37 -33.5t-57 -8.5q-46 0 -67.5 27t-21.5 65q0 47 20 69.5t69 32.5l58 12q36 8 36 34q0 37 -37 37q-41 0 -41 -39v-9h-94v13q0 99 137 99q80 0 107.5 -25t27.5 -74zM193 478v59q-13 -9 -34 -16l-21 -7 q-28 -10 -28 -41q0 -42 32 -42q20 0 35.5 11.5t15.5 35.5z"/>
<glyph glyph-name="guillemotleft" horiz-adv-x="426" unicode="«" d="M225 208v162l149 120v-132l-79 -69l79 -69v-132zM52 208v162l149 120v-132l-79 -69l79 -69v-132z"/>
<glyph glyph-name="logicalnot" horiz-adv-x="600" unicode="¬" d="M429 98v202h-382v124h506v-326h-124z"/>
<glyph glyph-name="uni00AD" horiz-adv-x="370" unicode="­" d="M44 348h282v-118h-282v118z"/>
<glyph glyph-name="registered" horiz-adv-x="800" unicode="®" d="M255 157v400h156q154 0 154 -124q0 -48 -27.5 -76.5t-71.5 -34.5l99 -165h-96l-94 161h-32v-161h-88zM343 487v-99h67q33 0 50 10t17 40q0 49 -76 49h-58zM29 357q0 154 108.5 262.5t262.5 108.5t262.5 -108.5t108.5 -262.5t-108.5 -262.5t-262.5 -108.5t-262.5 108.5 t-108.5 262.5zM141 357q0 -110 74.5 -187.5t184.5 -77.5t184.5 77.5t74.5 187.5t-74.5 187.5t-184.5 77.5t-184.5 -77.5t-74.5 -187.5z"/>
<glyph glyph-name="macron" horiz-adv-x="222" unicode="¯" d="M-36 712h294v-76h-294v76z"/>
<glyph glyph-name="degree" horiz-adv-x="400" unicode="°" d="M52 560q0 62 43 105t105 43t105 -43t43 -105t-43 -105t-105 -43t-105 43t-43 105zM128 560q0 -30 21 -51t51 -21t51 21t21 51t-21 51t-51 21t-51 -21t-21 -51z"/>
<glyph glyph-name="plusminus" horiz-adv-x="600" unicode="±" d="M238 398v108h124v-108h191v-124h-191v-108h-124v108h-191v124h191zM47 0v124h506v-124h-506z"/>
<glyph glyph-name="twosuperior" horiz-adv-x="360" unicode="²" d="M336 400h-312q0 117 101 188l50 36q49 35 49 81q0 21 -11.5 34t-31.5 13q-51 0 -51 -73h-106v25q0 124 160 124q152 0 152 -108q0 -43 -14 -72t-52 -58l-57 -44q-46 -35 -53 -64h176v-82z"/>
<glyph glyph-name="threesuperior" horiz-adv-x="360" unicode="³" d="M24 536h106q2 -67 49 -67q45 0 45 53q0 63 -60 63h-28v70h28q27 0 40.5 15.5t13.5 37.5q0 19 -11.5 31.5t-29.5 12.5q-46 0 -46 -60h-100q0 68 36 103q34 33 109 33q76 0 112 -26t36 -83q0 -39 -18.5 -63.5t-51.5 -31.5v-2q82 -15 82 -100q0 -129 -169 -129 q-143 0 -143 133v10z"/>
<glyph glyph-name="acute" horiz-adv-x="222" unicode="´" d="M46 602l54 144h138l-98 -144h-94z"/>
<glyph glyph-name="mu" horiz-adv-x="509" unicode="µ" d="M450 538v-390q0 -42 3.5 -55t17.5 -13q12 0 30 7v-82q-25 -19 -70 -19q-87 0 -108 82h-2q-15 -42 -43.5 -62t-58.5 -20q-25 0 -37 12v-174h-138v714h139v-370q0 -74 51 -74q35 0 56 27t21 76v341h139z"/>
<glyph glyph-name="paragraph" d="M182 -138v473q-89 0 -135 47.5t-46 138.5q0 108 51 150.5t147 42.5h268v-852h-106v758h-73v-758h-106z" unicode="¶"/>
<glyph glyph-name="periodcentered" horiz-adv-x="240" unicode="·" d="M23 282q0 41 28 69t69 28t69 -28t28 -69t-28 -69t-69 -28t-69 28t-28 69z"/>
<glyph glyph-name="cedilla" horiz-adv-x="222" unicode="¸" d="M95 0h52l-38 -58q15 5 33 5q35 0 60.5 -19.5t23.5 -52.5q0 -44 -32.5 -68t-93.5 -24q-66 0 -100 19l19 46q28 -15 69 -15q21 0 35.5 9t14.5 24q0 30 -44 32q-18 0 -34 -6l-22 20z"/>
<glyph glyph-name="onesuperior" horiz-adv-x="360" unicode="¹" d="M169 400v290h-91v70h8q96 0 109 68h86v-428h-112z"/>
<glyph glyph-name="ordmasculine" horiz-adv-x="314" unicode="º" d="M12 537q0 88 32.5 129.5t112.5 41.5h8q77 0 107 -41.5t30 -129.5q0 -87 -32.5 -128.5t-112.5 -41.5h-8q-77 0 -107 41.5t-30 128.5zM112 537q0 -53 8.5 -79.5t36.5 -26.5q25 0 35 24.5t10 81.5t-10 82t-35 25q-27 0 -36 -27t-9 -80z"/>
<glyph glyph-name="guillemotright" horiz-adv-x="426" unicode="»" d="M52 88v132l79 69l-79 69v132l149 -120v-162zM225 88v132l79 69l-79 69v132l149 -120v-162z"/>
<glyph glyph-name="onequarter" horiz-adv-x="850" unicode="¼" d="M635 159v145h-2l-86 -145h88zM465 77v91l152 260h124v-269h44v-82h-44v-77h-106v77h-170zM160 -31l406 756h89l-406 -756h-89zM155 280v290h-91v70h8q96 0 109 68h86v-428h-112z"/>
<glyph glyph-name="onehalf" horiz-adv-x="850" unicode="½" d="M136 -31l406 756h89l-406 -756h-89zM155 280v290h-91v70h8q96 0 109 68h86v-428h-112zM785 0h-312q0 117 101 188l50 36q49 35 49 81q0 21 -11.5 34t-31.5 13q-51 0 -51 -73h-106v25q0 124 160 124q152 0 152 -108q0 -43 -14 -72t-52 -58l-57 -44q-46 -35 -53 -64h176 v-82z"/>
<glyph glyph-name="threequarters" horiz-adv-x="850" unicode="¾" d="M465 77v91l152 260h124v-269h44v-82h-44v-77h-106v77h-170zM547 159h88v145h-2zM199 -31l406 756h89l-406 -756h-89zM64 416h106q2 -67 49 -67q45 0 45 53q0 63 -60 63h-28v70h28q27 0 40.5 15.5t13.5 37.5q0 19 -11.5 31.5t-29.5 12.5q-46 0 -46 -60h-100q0 68 36 103 q34 33 109 33q76 0 112 -26t36 -83q0 -39 -18.5 -63.5t-51.5 -31.5v-2q82 -15 82 -100q0 -129 -169 -129q-143 0 -143 133v10z"/>
<glyph glyph-name="questiondown" horiz-adv-x="481" unicode="¿" d="M313 45h132v-23q0 -93 -51 -149.5t-147 -56.5q-103 0 -157 51.5t-54 141.5q0 84 63 156l40 45q28 31 38.5 54.5t10.5 60.5v15h124v-39q0 -49 -14 -83.5t-48 -73.5l-38 -43q-38 -42 -38 -106q0 -39 17.5 -62t50.5 -23q71 0 71 110v25zM319 406h-138v132h138v-132z"/>
<glyph glyph-name="Agrave" horiz-adv-x="556" unicode="À" d="M340 756h-94l-98 144h138zM0 0l189 714h178l189 -714h-150l-33 151h-190l-33 -151h-150zM277 590l-69 -321h140l-69 321h-2z"/>
<glyph glyph-name="Aacute" horiz-adv-x="556" unicode="Á" d="M212 756l54 144h138l-98 -144h-94zM0 0l189 714h178l189 -714h-150l-33 151h-190l-33 -151h-150zM277 590l-69 -321h140l-69 321h-2z"/>
<glyph glyph-name="Acircumflex" horiz-adv-x="556" unicode="Â" d="M127 756l78 144h144l78 -144h-106l-46 85l-48 -85h-100zM0 0l189 714h178l189 -714h-150l-33 151h-190l-33 -151h-150zM277 590l-69 -321h140l-69 321h-2z"/>
<glyph glyph-name="Atilde" horiz-adv-x="556" unicode="Ã" d="M191 765h-70q17 124 93 124q23 0 64.5 -17t56.5 -17q13 0 20.5 12t7.5 24h72q-5 -55 -30 -89.5t-63 -34.5q-22 0 -63 17t-56 17q-25 0 -32 -36zM0 0l189 714h178l189 -714h-150l-33 151h-190l-33 -151h-150zM277 590l-69 -321h140l-69 321h-2z"/>
<glyph glyph-name="Adieresis" horiz-adv-x="556" unicode="Ä" d="M136 771v118h112v-118h-112zM308 771v118h112v-118h-112zM0 0l189 714h178l189 -714h-150l-33 151h-190l-33 -151h-150zM277 590l-69 -321h140l-69 321h-2z"/>
<glyph glyph-name="Aring" horiz-adv-x="556" unicode="Å" d="M166 844q0 48 33 79t80 31t80 -31t33 -79t-32.5 -78t-80.5 -30q-49 0 -81 29.5t-32 78.5zM222 844q0 -24 16.5 -40.5t40.5 -16.5t40.5 16.5t16.5 40.5t-16.5 40.5t-40.5 16.5t-40.5 -16.5t-16.5 -40.5zM0 0l189 714h178l189 -714h-150l-33 151h-190l-33 -151h-150z M277 590l-69 -321h140l-69 321h-2z"/>
<glyph glyph-name="AE" horiz-adv-x="759" unicode="Æ" d="M-5 0l269 714h463v-118h-235v-168h220v-118h-220v-192h245v-118h-383v151h-159l-50 -151h-150zM234 269h120v333h-9z"/>
<glyph glyph-name="Ccedilla" horiz-adv-x="537" unicode="Ç" d="M499 473h-144q0 80 -19 114.5t-67 34.5q-53 0 -71.5 -59.5t-18.5 -215.5q0 -106 10.5 -162.5t29.5 -74.5t52 -18q44 0 67 37t23 144h144q0 -99 -24.5 -165.5t-87.5 -98.5q-40 -20 -98 -23l-29 -44q15 5 33 5q35 0 60.5 -19.5t23.5 -52.5q0 -44 -32.5 -68t-93.5 -24 q-66 0 -100 19l19 46q28 -15 69 -15q21 0 35.5 9t14.5 24q0 30 -44 32q-17 0 -34 -6l-22 20l49 76q-58 4 -95 25q-68 40 -91 122t-23 222q0 73 4.5 123t19 100.5t40.5 80.5t71 48.5t108 18.5q59 0 102 -17.5t65 -41.5t35 -62t16 -67t3 -67z"/>
<glyph glyph-name="Egrave" horiz-adv-x="481" unicode="È" d="M319 756h-94l-98 144h138zM50 714h399v-118h-255v-168h240v-118h-240v-192h265v-118h-409v714z"/>
<glyph glyph-name="Eacute" horiz-adv-x="481" unicode="É" d="M199 756l54 144h138l-98 -144h-94zM50 714h399v-118h-255v-168h240v-118h-240v-192h265v-118h-409v714z"/>
<glyph glyph-name="Ecircumflex" horiz-adv-x="481" unicode="Ê" d="M101 756l78 144h144l78 -144h-106l-46 85l-48 -85h-100zM50 714h399v-118h-255v-168h240v-118h-240v-192h265v-118h-409v714z"/>
<glyph glyph-name="Edieresis" horiz-adv-x="481" unicode="Ë" d="M106 769v118h112v-118h-112zM278 769v118h112v-118h-112zM50 714h399v-118h-255v-168h240v-118h-240v-192h265v-118h-409v714z"/>
<glyph glyph-name="Igrave" horiz-adv-x="258" unicode="Ì" d="M202 756h-94l-98 144h138zM201 0h-144v714h144v-714z"/>
<glyph glyph-name="Iacute" horiz-adv-x="258" unicode="Í" d="M58 756l54 144h138l-98 -144h-94zM201 0h-144v714h144v-714z"/>
<glyph glyph-name="Icircumflex" horiz-adv-x="258" unicode="Î" d="M-19 756l78 144h144l78 -144h-106l-46 85l-48 -85h-100zM201 0h-144v714h144v-714z"/>
<glyph glyph-name="Idieresis" horiz-adv-x="258" unicode="Ï" d="M-12 769v118h112v-118h-112zM160 769v118h112v-118h-112zM201 0h-144v714h144v-714z"/>
<glyph glyph-name="Eth" horiz-adv-x="574" unicode="Ð" d="M57 0v315h-57v106h57v293h236q73 0 120.5 -23.5t72.5 -72t34 -107t9 -144.5q0 -196 -53 -281.5t-192 -85.5h-227zM201 608v-187h93v-106h-93v-209h64q73 0 96.5 53.5t23.5 203.5q0 67 -4 107.5t-16.5 74.5t-37.5 48.5t-65 14.5h-61z"/>
<glyph glyph-name="Ntilde" horiz-adv-x="574" unicode="Ñ" d="M202 765h-70q17 124 93 124q23 0 64.5 -17t56.5 -17q13 0 20.5 12t7.5 24h72q-5 -55 -30 -89.5t-63 -34.5q-22 0 -63 17t-56 17q-24 0 -32 -36zM50 714h166l174 -489h2v489h132v-714h-164l-176 500h-2v-500h-132v714z"/>
<glyph glyph-name="Ograve" horiz-adv-x="556" unicode="Ò" d="M340 756h-94l-98 144h138zM179 357q0 -152 19 -208.5t80 -56.5t80 56.5t19 208.5q0 151 -19 208t-80 57t-80 -57t-19 -208zM35 357q0 73 4.5 123t19 100.5t40.5 80.5t71 48.5t108 18.5t108 -18.5t71 -48.5t40.5 -80.5t19 -100.5t4.5 -123t-4.5 -123t-19 -100.5 t-40.5 -80.5t-71 -48.5t-108 -18.5t-108 18.5t-71 48.5t-40.5 80.5t-19 100.5t-4.5 123z"/>
<glyph glyph-name="Oacute" horiz-adv-x="556" unicode="Ó" d="M227 756l54 144h138l-98 -144h-94zM179 357q0 -152 19 -208.5t80 -56.5t80 56.5t19 208.5q0 151 -19 208t-80 57t-80 -57t-19 -208zM35 357q0 73 4.5 123t19 100.5t40.5 80.5t71 48.5t108 18.5t108 -18.5t71 -48.5t40.5 -80.5t19 -100.5t4.5 -123t-4.5 -123t-19 -100.5 t-40.5 -80.5t-71 -48.5t-108 -18.5t-108 18.5t-71 48.5t-40.5 80.5t-19 100.5t-4.5 123z"/>
<glyph glyph-name="Ocircumflex" horiz-adv-x="556" unicode="Ô" d="M130 756l78 144h144l78 -144h-106l-46 85l-48 -85h-100zM179 357q0 -152 19 -208.5t80 -56.5t80 56.5t19 208.5q0 151 -19 208t-80 57t-80 -57t-19 -208zM35 357q0 73 4.5 123t19 100.5t40.5 80.5t71 48.5t108 18.5t108 -18.5t71 -48.5t40.5 -80.5t19 -100.5t4.5 -123 t-4.5 -123t-19 -100.5t-40.5 -80.5t-71 -48.5t-108 -18.5t-108 18.5t-71 48.5t-40.5 80.5t-19 100.5t-4.5 123z"/>
<glyph glyph-name="Otilde" horiz-adv-x="556" unicode="Õ" d="M190 765h-70q17 124 93 124q23 0 64.5 -17t56.5 -17q13 0 20.5 12t7.5 24h72q-5 -55 -30 -89.5t-63 -34.5q-22 0 -63 17t-56 17q-24 0 -32 -36zM179 357q0 -152 19 -208.5t80 -56.5t80 56.5t19 208.5q0 151 -19 208t-80 57t-80 -57t-19 -208zM35 357q0 73 4.5 123 t19 100.5t40.5 80.5t71 48.5t108 18.5t108 -18.5t71 -48.5t40.5 -80.5t19 -100.5t4.5 -123t-4.5 -123t-19 -100.5t-40.5 -80.5t-71 -48.5t-108 -18.5t-108 18.5t-71 48.5t-40.5 80.5t-19 100.5t-4.5 123z"/>
<glyph glyph-name="Odieresis" horiz-adv-x="556" unicode="Ö" d="M137 769v118h112v-118h-112zM309 769v118h112v-118h-112zM179 357q0 -152 19 -208.5t80 -56.5t80 56.5t19 208.5q0 151 -19 208t-80 57t-80 -57t-19 -208zM35 357q0 73 4.5 123t19 100.5t40.5 80.5t71 48.5t108 18.5t108 -18.5t71 -48.5t40.5 -80.5t19 -100.5t4.5 -123 t-4.5 -123t-19 -100.5t-40.5 -80.5t-71 -48.5t-108 -18.5t-108 18.5t-71 48.5t-40.5 80.5t-19 100.5t-4.5 123z"/>
<glyph glyph-name="multiply" horiz-adv-x="600" unicode="×" d="M59 98l156 155l-156 155l86 86l155 -156l155 156l86 -86l-156 -155l156 -155l-86 -86l-155 156l-155 -156z"/>
<glyph glyph-name="Oslash" horiz-adv-x="556" unicode="Ø" d="M187 209l161 377q-22 36 -70 36q-61 0 -80 -57t-19 -208q0 -104 6 -148h2zM369 505l-161 -376q19 -37 70 -37q61 0 80 56.5t19 208.5q0 101 -6 148h-2zM83 -30l30 70q-46 42 -62 119t-16 198q0 73 4.5 123t19 100.5t40.5 80.5t71 48.5t108 18.5q73 0 121 -24l26 61 l48 -21l-30 -70q46 -42 62 -119t16 -198q0 -73 -4.5 -123t-19 -100.5t-40.5 -80.5t-71 -48.5t-108 -18.5q-74 0 -121 24l-26 -61z"/>
<glyph glyph-name="Ugrave" horiz-adv-x="538" unicode="Ù" d="M333 756h-94l-98 144h138zM41 714h144v-498q0 -59 18 -91.5t66 -32.5t66 32.5t18 91.5v498h144v-498q0 -65 -18.5 -111.5t-52 -71.5t-72 -36t-85.5 -11q-48 0 -85.5 9.5t-71.5 33.5t-52.5 71t-18.5 116v498z"/>
<glyph glyph-name="Uacute" horiz-adv-x="538" unicode="Ú" d="M220 756l54 144h138l-98 -144h-94zM41 714h144v-498q0 -59 18 -91.5t66 -32.5t66 32.5t18 91.5v498h144v-498q0 -65 -18.5 -111.5t-52 -71.5t-72 -36t-85.5 -11q-48 0 -85.5 9.5t-71.5 33.5t-52.5 71t-18.5 116v498z"/>
<glyph glyph-name="Ucircumflex" horiz-adv-x="538" unicode="Û" d="M120 756l78 144h144l78 -144h-106l-46 85l-48 -85h-100zM41 714h144v-498q0 -59 18 -91.5t66 -32.5t66 32.5t18 91.5v498h144v-498q0 -65 -18.5 -111.5t-52 -71.5t-72 -36t-85.5 -11q-48 0 -85.5 9.5t-71.5 33.5t-52.5 71t-18.5 116v498z"/>
<glyph glyph-name="Udieresis" horiz-adv-x="538" unicode="Ü" d="M127 769v118h112v-118h-112zM299 769v118h112v-118h-112zM41 714h144v-498q0 -59 18 -91.5t66 -32.5t66 32.5t18 91.5v498h144v-498q0 -65 -18.5 -111.5t-52 -71.5t-72 -36t-85.5 -11q-48 0 -85.5 9.5t-71.5 33.5t-52.5 71t-18.5 116v498z"/>
<glyph glyph-name="Yacute" horiz-adv-x="520" unicode="Ý" d="M216 758l54 144h138l-98 -144h-94zM3 714h162l94 -276h2l100 276h156l-185 -433v-281h-144v281z"/>
<glyph glyph-name="Thorn" horiz-adv-x="519" unicode="Þ" d="M50 0v714h144v-128h108q102 0 149 -61.5t47 -152.5q0 -108 -60.5 -161.5t-166.5 -53.5h-77v-157h-144zM194 480v-217h64q44 0 70 27t26 80q0 110 -100 110h-60z"/>
<glyph glyph-name="germandbls" horiz-adv-x="500" unicode="ß" d="M179 0h-138v527q0 105 51.5 153t160.5 48q96 0 146.5 -43.5t50.5 -127.5q0 -58 -19 -91.5t-70 -55.5v-2q111 -18 111 -192q0 -222 -179 -222q-46 0 -66 4v94q9 -4 21 -4q51 0 68.5 35.5t17.5 110.5q0 121 -80 121h-25v94h17q66 0 66 95q0 90 -66 90q-38 0 -52.5 -28 t-14.5 -82v-524z"/>
<glyph glyph-name="agrave" horiz-adv-x="481" unicode="à" d="M308 602h-94l-98 144h138zM297 163v108q-19 -15 -47 -25l-30 -11q-36 -13 -48 -32t-12 -48q0 -33 13 -54t39 -21q33 0 59 21t26 62zM169 373h-124v13q0 87 52 126.5t137 39.5q114 0 154.5 -41.5t40.5 -123.5v-283q0 -62 17 -104h-132q-9 16 -17 56h-2q-23 -41 -54 -55.5 t-83 -14.5q-66 0 -98 46t-32 108q0 75 32.5 111.5t111.5 58.5l63 17q36 10 49 24t13 41q0 66 -64 66t-64 -70v-15z"/>
<glyph glyph-name="aacute" horiz-adv-x="481" unicode="á" d="M190 602l54 144h138l-98 -144h-94zM297 163v108q-19 -15 -47 -25l-30 -11q-36 -13 -48 -32t-12 -48q0 -33 13 -54t39 -21q33 0 59 21t26 62zM169 373h-124v13q0 87 52 126.5t137 39.5q114 0 154.5 -41.5t40.5 -123.5v-283q0 -62 17 -104h-132q-9 16 -17 56h-2 q-23 -41 -54 -55.5t-83 -14.5q-66 0 -98 46t-32 108q0 75 32.5 111.5t111.5 58.5l63 17q36 10 49 24t13 41q0 66 -64 66t-64 -70v-15z"/>
<glyph glyph-name="acircumflex" horiz-adv-x="481" unicode="â" d="M90 602l78 144h144l78 -144h-106l-46 85l-48 -85h-100zM297 163v108q-19 -15 -47 -25l-30 -11q-36 -13 -48 -32t-12 -48q0 -33 13 -54t39 -21q33 0 59 21t26 62zM169 373h-124v13q0 87 52 126.5t137 39.5q114 0 154.5 -41.5t40.5 -123.5v-283q0 -62 17 -104h-132 q-9 16 -17 56h-2q-23 -41 -54 -55.5t-83 -14.5q-66 0 -98 46t-32 108q0 75 32.5 111.5t111.5 58.5l63 17q36 10 49 24t13 41q0 66 -64 66t-64 -70v-15z"/>
<glyph glyph-name="atilde" horiz-adv-x="481" unicode="ã" d="M155 611h-70q17 124 93 124q23 0 64.5 -17t56.5 -17q13 0 20.5 12t7.5 24h72q-5 -55 -30 -89.5t-63 -34.5q-22 0 -63 17t-56 17q-25 0 -32 -36zM297 163v108q-19 -15 -47 -25l-30 -11q-36 -13 -48 -32t-12 -48q0 -33 13 -54t39 -21q33 0 59 21t26 62zM169 373h-124v13 q0 87 52 126.5t137 39.5q114 0 154.5 -41.5t40.5 -123.5v-283q0 -62 17 -104h-132q-9 16 -17 56h-2q-23 -41 -54 -55.5t-83 -14.5q-66 0 -98 46t-32 108q0 75 32.5 111.5t111.5 58.5l63 17q36 10 49 24t13 41q0 66 -64 66t-64 -70v-15z"/>
<glyph glyph-name="adieresis" horiz-adv-x="481" unicode="ä" d="M99 615v118h112v-118h-112zM271 615v118h112v-118h-112zM297 163v108q-19 -15 -47 -25l-30 -11q-36 -13 -48 -32t-12 -48q0 -33 13 -54t39 -21q33 0 59 21t26 62zM169 373h-124v13q0 87 52 126.5t137 39.5q114 0 154.5 -41.5t40.5 -123.5v-283q0 -62 17 -104h-132 q-9 16 -17 56h-2q-23 -41 -54 -55.5t-83 -14.5q-66 0 -98 46t-32 108q0 75 32.5 111.5t111.5 58.5l63 17q36 10 49 24t13 41q0 66 -64 66t-64 -70v-15z"/>
<glyph glyph-name="aring" horiz-adv-x="481" unicode="å" d="M124 690q0 48 33 79t80 31t80 -31t33 -79t-32.5 -78t-80.5 -30q-49 0 -81 29.5t-32 78.5zM180 690q0 -24 16.5 -40.5t40.5 -16.5t40.5 16.5t16.5 40.5t-16.5 40.5t-40.5 16.5t-40.5 -16.5t-16.5 -40.5zM297 163v108q-19 -15 -47 -25l-30 -11q-36 -13 -48 -32t-12 -48 q0 -33 13 -54t39 -21q33 0 59 21t26 62zM169 373h-124v13q0 87 52 126.5t137 39.5q114 0 154.5 -41.5t40.5 -123.5v-283q0 -62 17 -104h-132q-9 16 -17 56h-2q-23 -41 -54 -55.5t-83 -14.5q-66 0 -98 46t-32 108q0 75 32.5 111.5t111.5 58.5l63 17q36 10 49 24t13 41 q0 66 -64 66t-64 -70v-15z"/>
<glyph glyph-name="ae" horiz-adv-x="722" unicode="æ" d="M297 163v108q-19 -15 -47 -25l-30 -11q-36 -13 -48 -32t-12 -48q0 -33 13 -54t39 -21q33 0 59 21t26 62zM424 330h139q-2 69 -16 98.5t-53 29.5q-37 0 -53.5 -31.5t-16.5 -75.5v-21zM168 373h-124v13q0 87 52 126.5t137 39.5q55 0 86.5 -14t52.5 -50q31 64 127 64 q59 0 98 -18.5t60 -56.5t29.5 -85t8.5 -113v-31h-271v-43q0 -54 16 -89.5t51 -35.5q33 0 49.5 24.5t22.5 76.5h124q-8 -195 -194 -195q-126 0 -162 93q-28 -52 -66.5 -72.5t-94.5 -20.5q-75 0 -109 45.5t-34 108.5q0 74 31 111t105 57l78 21q31 8 43 22t12 41q0 66 -64 66 t-64 -70v-15z"/>
<glyph glyph-name="ccedilla" horiz-adv-x="463" unicode="ç" d="M437 344h-132q0 108 -62 108q-48 0 -63.5 -41.5t-15.5 -142.5q0 -104 15 -146t59 -42q35 0 51 30t16 96h132q0 -106 -48 -163q-40 -48 -128 -56l-29 -45q15 5 33 5q35 0 60.5 -19.5t23.5 -52.5q0 -44 -32.5 -68t-93.5 -24q-66 0 -100 19l19 46q28 -15 69 -15q21 0 35.5 9 t14.5 24q0 30 -44 32q-17 0 -34 -6l-22 20l48 75q-35 1 -68 13q-58 21 -86.5 85.5t-28.5 183.5q0 156 56.5 219.5t161.5 63.5q94 0 143.5 -55t49.5 -153z"/>
<glyph glyph-name="egrave" horiz-adv-x="463" unicode="è" d="M302 602h-94l-98 144h138zM164 330h141q-2 68 -16 98t-54 30q-38 0 -54.5 -31t-16.5 -76v-21zM437 248h-273v-43q0 -54 16 -89.5t52 -35.5q34 0 50.5 24t22.5 77h124q-8 -195 -195 -195q-42 0 -74.5 9.5t-54 23.5t-37 38.5t-23.5 46.5t-12.5 55t-5.5 56.5t-1 58.5 q0 48 4 85t17.5 75t36.5 62.5t62.5 40t93.5 15.5q113 0 155 -68.5t42 -204.5v-31z"/>
<glyph glyph-name="eacute" horiz-adv-x="463" unicode="é" d="M190 602l54 144h138l-98 -144h-94zM164 330h141q-2 68 -16 98t-54 30q-38 0 -54.5 -31t-16.5 -76v-21zM437 248h-273v-43q0 -54 16 -89.5t52 -35.5q34 0 50.5 24t22.5 77h124q-8 -195 -195 -195q-42 0 -74.5 9.5t-54 23.5t-37 38.5t-23.5 46.5t-12.5 55t-5.5 56.5 t-1 58.5q0 48 4 85t17.5 75t36.5 62.5t62.5 40t93.5 15.5q113 0 155 -68.5t42 -204.5v-31z"/>
<glyph glyph-name="ecircumflex" horiz-adv-x="463" unicode="ê" d="M90 602l78 144h144l78 -144h-106l-46 85l-48 -85h-100zM164 330h141q-2 68 -16 98t-54 30q-38 0 -54.5 -31t-16.5 -76v-21zM437 248h-273v-43q0 -54 16 -89.5t52 -35.5q34 0 50.5 24t22.5 77h124q-8 -195 -195 -195q-42 0 -74.5 9.5t-54 23.5t-37 38.5t-23.5 46.5 t-12.5 55t-5.5 56.5t-1 58.5q0 48 4 85t17.5 75t36.5 62.5t62.5 40t93.5 15.5q113 0 155 -68.5t42 -204.5v-31z"/>
<glyph glyph-name="edieresis" horiz-adv-x="463" unicode="ë" d="M98 615v118h112v-118h-112zM270 615v118h112v-118h-112zM164 330h141q-2 68 -16 98t-54 30q-38 0 -54.5 -31t-16.5 -76v-21zM437 248h-273v-43q0 -54 16 -89.5t52 -35.5q34 0 50.5 24t22.5 77h124q-8 -195 -195 -195q-42 0 -74.5 9.5t-54 23.5t-37 38.5t-23.5 46.5 t-12.5 55t-5.5 56.5t-1 58.5q0 48 4 85t17.5 75t36.5 62.5t62.5 40t93.5 15.5q113 0 155 -68.5t42 -204.5v-31z"/>
<glyph glyph-name="igrave" horiz-adv-x="240" unicode="ì" d="M188 602h-94l-98 144h138zM51 0v538h138v-538h-138z"/>
<glyph glyph-name="iacute" horiz-adv-x="240" unicode="í" d="M51 602l54 144h138l-98 -144h-94zM51 0v538h138v-538h-138z"/>
<glyph glyph-name="icircumflex" horiz-adv-x="240" unicode="î" d="M-29 602l78 144h144l78 -144h-106l-46 85l-48 -85h-100zM51 0v538h138v-538h-138z"/>
<glyph glyph-name="idieresis" horiz-adv-x="240" unicode="ï" d="M-22 615v118h112v-118h-112zM150 615v118h112v-118h-112zM51 0v538h138v-538h-138z"/>
<glyph glyph-name="eth" d="M166 262q0 -46 2 -74.5t9 -55.5t22.5 -39.5t40.5 -12.5q41 0 57.5 41.5t16.5 140.5q0 95 -16.5 135.5t-57.5 40.5q-25 0 -40.5 -12.5t-22.5 -39t-9 -53.5t-2 -71zM105 583l-39 42l76 45q-24 24 -66 64l104 61q32 -28 67 -63l75 45l43 -42l-77 -45q84 -92 124 -190 t40 -231q0 -143 -49 -213t-163 -70h-7q-115 0 -160 68.5t-45 214.5q0 263 174 263q39 0 70 -26l2 2q-31 50 -92 120z" unicode="ð"/>
<glyph glyph-name="ntilde" horiz-adv-x="500" unicode="ñ" d="M156 611h-70q17 124 93 124q23 0 64.5 -17t56.5 -17q13 0 20.5 12t7.5 24h72q-5 -55 -30 -89.5t-63 -34.5q-22 0 -63 17t-56 17q-24 0 -32 -36zM46 0v538h132v-63h2q42 77 137 77q137 0 137 -153v-399h-138v371q0 41 -14 58t-45 17q-73 0 -73 -89v-357h-138z"/>
<glyph glyph-name="ograve" d="M299 602h-94l-98 144h138zM166 269q0 -48 2 -77t9 -57.5t22.5 -41.5t40.5 -13q41 0 57.5 43t16.5 146t-16.5 146t-57.5 43q-25 0 -40.5 -13t-22.5 -41.5t-9 -57.5t-2 -77zM28 269q0 143 49 213t163 70h7q115 0 160 -68.5t45 -214.5q0 -143 -49 -213t-163 -70h-7 q-115 0 -160 68.5t-45 214.5z" unicode="ò"/>
<glyph glyph-name="oacute" d="M191 602l54 144h138l-98 -144h-94zM166 269q0 -48 2 -77t9 -57.5t22.5 -41.5t40.5 -13q41 0 57.5 43t16.5 146t-16.5 146t-57.5 43q-25 0 -40.5 -13t-22.5 -41.5t-9 -57.5t-2 -77zM28 269q0 143 49 213t163 70h7q115 0 160 -68.5t45 -214.5q0 -143 -49 -213t-163 -70h-7 q-115 0 -160 68.5t-45 214.5z" unicode="ó"/>
<glyph glyph-name="ocircumflex" d="M90 602l78 144h144l78 -144h-106l-46 85l-48 -85h-100zM166 269q0 -48 2 -77t9 -57.5t22.5 -41.5t40.5 -13q41 0 57.5 43t16.5 146t-16.5 146t-57.5 43q-25 0 -40.5 -13t-22.5 -41.5t-9 -57.5t-2 -77zM28 269q0 143 49 213t163 70h7q115 0 160 -68.5t45 -214.5 q0 -143 -49 -213t-163 -70h-7q-115 0 -160 68.5t-45 214.5z" unicode="ô"/>
<glyph glyph-name="otilde" d="M153 611h-70q17 124 93 124q23 0 64.5 -17t56.5 -17q13 0 20.5 12t7.5 24h72q-5 -55 -30 -89.5t-63 -34.5q-22 0 -63 17t-56 17q-25 0 -32 -36zM166 269q0 -48 2 -77t9 -57.5t22.5 -41.5t40.5 -13q41 0 57.5 43t16.5 146t-16.5 146t-57.5 43q-25 0 -40.5 -13t-22.5 -41.5 t-9 -57.5t-2 -77zM28 269q0 143 49 213t163 70h7q115 0 160 -68.5t45 -214.5q0 -143 -49 -213t-163 -70h-7q-115 0 -160 68.5t-45 214.5z" unicode="õ"/>
<glyph glyph-name="odieresis" d="M98 615v118h112v-118h-112zM270 615v118h112v-118h-112zM166 269q0 -48 2 -77t9 -57.5t22.5 -41.5t40.5 -13q41 0 57.5 43t16.5 146t-16.5 146t-57.5 43q-25 0 -40.5 -13t-22.5 -41.5t-9 -57.5t-2 -77zM28 269q0 143 49 213t163 70h7q115 0 160 -68.5t45 -214.5 q0 -143 -49 -213t-163 -70h-7q-115 0 -160 68.5t-45 214.5z" unicode="ö"/>
<glyph glyph-name="divide" horiz-adv-x="600" unicode="÷" d="M47 191v124h506v-124h-506zM203 465q0 41 28 69t69 28t69 -28t28 -69t-28 -69t-69 -28t-69 28t-28 69zM203 41q0 41 28 69t69 28t69 -28t28 -69t-28 -69t-69 -28t-69 28t-28 69z"/>
<glyph glyph-name="oslash" d="M170 186l123 238q-16 34 -53 34q-25 0 -40.5 -13t-22.5 -41.5t-9 -57.5t-2 -77v-44q0 -15 2 -39h2zM310 351l-124 -238q16 -33 54 -33q41 0 57.5 43t16.5 146q0 36 -2 82h-2zM53 -35l37 70q-62 59 -62 234q0 143 49 213t163 70h8q62 0 101 -21l34 65l44 -23l-37 -70 q62 -59 62 -234q0 -143 -49 -213t-163 -70h-8q-64 0 -101 21l-34 -65z" unicode="ø"/>
<glyph glyph-name="ugrave" horiz-adv-x="500" unicode="ù" d="M312 602h-94l-98 144h138zM322 0v63h-2q-42 -77 -137 -77q-137 0 -137 153v399h138v-371q0 -41 14 -58t45 -17q73 0 73 89v357h138v-538h-132z"/>
<glyph glyph-name="uacute" horiz-adv-x="500" unicode="ú" d="M200 602l54 144h138l-98 -144h-94zM322 0v63h-2q-42 -77 -137 -77q-137 0 -137 153v399h138v-371q0 -41 14 -58t45 -17q73 0 73 89v357h138v-538h-132z"/>
<glyph glyph-name="ucircumflex" horiz-adv-x="500" unicode="û" d="M100 602l78 144h144l78 -144h-106l-46 85l-48 -85h-100zM322 0v63h-2q-42 -77 -137 -77q-137 0 -137 153v399h138v-371q0 -41 14 -58t45 -17q73 0 73 89v357h138v-538h-132z"/>
<glyph glyph-name="udieresis" horiz-adv-x="500" unicode="ü" d="M108 615v118h112v-118h-112zM280 615v118h112v-118h-112zM322 0v63h-2q-42 -77 -137 -77q-137 0 -137 153v399h138v-371q0 -41 14 -58t45 -17q73 0 73 89v357h138v-538h-132z"/>
<glyph glyph-name="yacute" horiz-adv-x="444" unicode="ý" d="M178 602l54 144h138l-98 -144h-94zM46 -176v103q18 -3 36 -3q68 0 74 76l-151 538h144l80 -372h2l70 372h138l-130 -502q-19 -73 -34.5 -112t-39.5 -63t-53 -30.5t-80 -6.5h-56z"/>
<glyph glyph-name="thorn" horiz-adv-x="500" unicode="þ" d="M184 269q0 -94 15 -135.5t58 -41.5t57.5 41.5t14.5 135.5t-14.5 135.5t-57.5 41.5t-58 -41.5t-15 -135.5zM46 -176v890h138v-233h2q33 71 116 71q85 0 125 -67t40 -216t-40 -216t-125 -67q-73 0 -116 64h-2v-226h-138z"/>
<glyph glyph-name="OE" horiz-adv-x="778" unicode="Œ" d="M748 714v-118h-242v-168h227v-118h-227v-192h250v-118h-373v41h-2q-11 -25 -47.5 -40t-75.5 -15q-51 0 -89 14t-62 43t-39 60.5t-22 79.5t-9 87t-2 95q0 62 4.5 109.5t18 97.5t36.5 82.5t63 53t94 20.5q99 0 130 -52h2v38h365zM179 357q0 -153 18 -209t81 -56 q60 0 75 51.5t15 213.5q0 57 -0.5 90t-3.5 67.5t-9 51t-16 31.5t-24.5 20t-36.5 5q-63 0 -81 -56t-18 -209z"/>
<glyph glyph-name="oe" horiz-adv-x="741" unicode="œ" d="M712 248h-273v-43q0 -54 16 -89.5t52 -35.5q34 0 50.5 24.5t22.5 76.5h124q-8 -195 -187 -195q-110 0 -140 79q-14 -37 -54.5 -58t-93.5 -21q-112 0 -156 68t-44 215q0 143 49 213t163 70q55 0 88.5 -18t54.5 -57q20 36 55 55.5t76 19.5q113 0 155 -68.5t42 -204.5v-31z M243 80q41 0 56.5 43t15.5 146t-16.5 146t-57.5 43q-25 0 -40.5 -13t-22.5 -41.5t-9 -57.5t-2 -77t2 -77t9.5 -57.5t23.5 -41.5t41 -13zM439 330h141q-2 68 -16 98t-54 30q-38 0 -54.5 -31t-16.5 -76v-21z"/>
<glyph glyph-name="Scaron" horiz-adv-x="519" unicode="Š" d="M185 758l-78 144h106l46 -85l48 85h100l-78 -144h-144zM22 223h144v-21q0 -55 20.5 -82.5t74.5 -27.5q36 0 61 23t25 65q0 69 -54 91l-107 43q-81 32 -117.5 79t-36.5 125q0 103 58 156.5t163 53.5q102 0 161.5 -47t59.5 -145v-20h-138q0 106 -78 106q-82 0 -82 -83 q0 -35 15 -56.5t59 -40.5l111 -48q78 -35 107 -77.5t29 -111.5q0 -219 -248 -219q-119 0 -173 53t-54 155v29z"/>
<glyph glyph-name="scaron" horiz-adv-x="444" unicode="š" d="M151 602l-78 144h106l46 -85l48 85h100l-78 -144h-144zM23 176h124v-18q0 -36 18.5 -57t53.5 -21q70 0 70 64q0 42 -50 61l-97 35q-115 41 -115 150q0 71 49 116.5t149 45.5q184 0 184 -153v-22h-124q0 42 -14 61.5t-47 19.5q-28 0 -46.5 -15t-18.5 -43q0 -44 60 -63 l83 -28q65 -22 92 -57.5t27 -96.5q0 -82 -55 -125.5t-145 -43.5q-111 0 -154.5 43.5t-43.5 127.5v19z"/>
<glyph glyph-name="Ydieresis" horiz-adv-x="520" unicode="Ÿ" d="M118 769v118h112v-118h-112zM290 769v118h112v-118h-112zM3 714h162l94 -276h2l100 276h156l-185 -433v-281h-144v281z"/>
<glyph glyph-name="circumflex" horiz-adv-x="222" unicode="ˆ" d="M-39 602l78 144h144l78 -144h-106l-46 85l-48 -85h-100z"/>
<glyph glyph-name="tilde" horiz-adv-x="222" unicode="˜" d="M24 611h-70q17 124 93 124q23 0 64.5 -17t56.5 -17q13 0 20.5 12t7.5 24h72q-5 -55 -30 -89.5t-63 -34.5q-22 0 -63 17t-56 17q-24 0 -32 -36z"/>
<glyph glyph-name="Alpha" horiz-adv-x="556" unicode="Α" d="M0 0l189 714h178l189 -714h-150l-33 151h-190l-33 -151h-150zM277 590l-69 -321h140l-69 321h-2z"/>
<glyph glyph-name="Beta" horiz-adv-x="556" unicode="Β" d="M50 0v714h241q203 0 203 -181q0 -59 -27.5 -100t-80.5 -56v-2q61 -8 95.5 -51.5t34.5 -114.5q0 -93 -52.5 -151t-170.5 -58h-243zM194 608v-187h41q61 0 88 21.5t27 72.5q0 50 -24.5 71.5t-79.5 21.5h-52zM194 321v-215h56q56 0 86 24.5t30 83.5q0 107 -110 107h-62z"/>
<glyph glyph-name="Gamma" horiz-adv-x="439" unicode="Γ" d="M50 0v714h377v-116h-232v-598h-145z"/>
<glyph glyph-name="uni0394" horiz-adv-x="552" unicode="Δ" d="M278 585l-105 -472h208l-101 472h-2zM552 0h-552l188 714h184z"/>
<glyph glyph-name="Epsilon" horiz-adv-x="481" unicode="Ε" d="M50 714h399v-118h-255v-168h240v-118h-240v-192h265v-118h-409v714z"/>
<glyph glyph-name="Zeta" horiz-adv-x="481" unicode="Ζ" d="M24 0v105l263 491h-245v118h411v-109l-267 -487h271v-118h-433z"/>
<glyph glyph-name="Eta" horiz-adv-x="556" unicode="Η" d="M50 0v714h144v-273h168v273h144v-714h-144v317h-168v-317h-144z"/>
<glyph glyph-name="Theta" horiz-adv-x="556" unicode="Θ" d="M179 357q0 -152 19 -208.5t80 -56.5t80 56.5t19 208.5q0 151 -19 208t-80 57t-80 -57t-19 -208zM35 357q0 73 4.5 123t19 100.5t40.5 80.5t71 48.5t108 18.5t108 -18.5t71 -48.5t40.5 -80.5t19 -100.5t4.5 -123t-4.5 -123t-19 -100.5t-40.5 -80.5t-71 -48.5t-108 -18.5 t-108 18.5t-71 48.5t-40.5 80.5t-19 100.5t-4.5 123zM208 329v89h140v-89h-140z"/>
<glyph glyph-name="Iota" horiz-adv-x="258" unicode="Ι" d="M201 0h-144v714h144v-714z"/>
<glyph glyph-name="Kappa" horiz-adv-x="537" unicode="Κ" d="M50 714h144v-286h2l182 286h156l-194 -306l216 -408h-162l-147 293l-53 -81v-212h-144v714z"/>
<glyph glyph-name="Lambda" horiz-adv-x="552" unicode="Λ" d="M403 0l-123 585h-2l-129 -585h-149l188 714h184l180 -714h-149z"/>
<glyph glyph-name="Mu" horiz-adv-x="740" unicode="Μ" d="M53 0v714h214l102 -504h2l103 504h213v-714h-132v570h-2l-127 -570h-112l-127 570h-2v-570h-132z"/>
<glyph glyph-name="Nu" horiz-adv-x="574" unicode="Ν" d="M50 714h166l174 -489h2v489h132v-714h-164l-176 500h-2v-500h-132v714z"/>
<glyph glyph-name="Xi" horiz-adv-x="426" unicode="Ξ" d="M48 309v120h330v-120h-330zM12 595v119h402v-119h-402zM13 -1v119h398v-119h-398z"/>
<glyph glyph-name="Omicron" horiz-adv-x="556" unicode="Ο" d="M179 357q0 -152 19 -208.5t80 -56.5t80 56.5t19 208.5q0 151 -19 208t-80 57t-80 -57t-19 -208zM35 357q0 73 4.5 123t19 100.5t40.5 80.5t71 48.5t108 18.5t108 -18.5t71 -48.5t40.5 -80.5t19 -100.5t4.5 -123t-4.5 -123t-19 -100.5t-40.5 -80.5t-71 -48.5t-108 -18.5 t-108 18.5t-71 48.5t-40.5 80.5t-19 100.5t-4.5 123z"/>
<glyph glyph-name="Pi" horiz-adv-x="556" unicode="Π" d="M50 0v714h456v-714h-144v595h-168v-595h-144z"/>
<glyph glyph-name="Rho" horiz-adv-x="519" unicode="Ρ" d="M50 0v714h252q102 0 149 -61.5t47 -152.5q0 -108 -60.5 -161.5t-166.5 -53.5h-77v-285h-144zM194 608v-217h64q44 0 70 27t26 80q0 110 -100 110h-60z"/>
<glyph glyph-name="Sigma" horiz-adv-x="489" unicode="Σ" d="M473 0h-454v104l185 266l-176 240v104h432v-119h-260l168 -222l-173 -255h278v-118z"/>
<glyph glyph-name="Tau" d="M12 714h456v-118h-156v-596h-144v596h-156v118z" unicode="Τ"/>
<glyph glyph-name="Upsilon" horiz-adv-x="520" unicode="Υ" d="M3 714h162l94 -276h2l100 276h156l-185 -433v-281h-144v281z"/>
<glyph glyph-name="Phi" horiz-adv-x="652" unicode="Φ" d="M256 737h141v-76q107 -6 168.5 -81.5t61.5 -207.5t-60.5 -207t-169.5 -86v-79h-141v77q-109 10 -170 83.5t-61 207.5t63 209t168 84v76zM396 545v-352q89 11 89 179q0 167 -89 173zM256 193v353q-43 -4 -65.5 -51.5t-22.5 -126.5q0 -165 88 -175z"/>
<glyph glyph-name="Chi" horiz-adv-x="537" unicode="Χ" d="M184 361l-164 353h159l92 -231l91 231h157l-166 -353l178 -361h-162l-103 242l-102 -242h-158z"/>
<glyph glyph-name="Psi" horiz-adv-x="671" unicode="Ψ" d="M264 272v442h143v-442q81 11 81 168v274h143v-276q0 -252 -223 -280v-158h-144v157q-115 9 -169.5 78.5t-54.5 202.5v276h143v-274q0 -156 81 -168z"/>
<glyph glyph-name="alpha" horiz-adv-x="525" unicode="α" d="M324 55h-2q-11 -31 -43 -50t-77 -19q-93 0 -131 70.5t-38 215.5q0 143 38.5 211.5t124.5 68.5q42 0 73 -20t41 -46h2v52h139v-384v-20q0 -23 5 -34t22 -11q14 0 37 9v-89q-41 -23 -81 -23q-86 0 -110 69zM313 267q0 97 -16 138t-55 41q-28 0 -44 -25.5t-20.5 -61 t-4.5 -90.5q0 -91 14.5 -134t52.5 -43q42 0 57.5 37.5t15.5 137.5z"/>
<glyph glyph-name="beta" horiz-adv-x="502" unicode="β" d="M218 358v90h24q30 0 42 24.5t12 89.5q0 44 -11.5 64.5t-41.5 20.5q-35 0 -46.5 -30.5t-12.5 -115.5v-218q0 -110 16.5 -150.5t66.5 -40.5q61 0 61 133q0 81 -16 107t-53 26h-41zM46 -176v689q0 225 197 225q89 0 138 -43.5t49 -134.5q0 -50 -20.5 -83t-51.5 -47v-1 q60 -14 85.5 -70.5t25.5 -132.5q0 -117 -45 -178.5t-122 -61.5q-91 0 -119 75h-2v-237h-135z"/>
<glyph glyph-name="gamma" horiz-adv-x="437" unicode="γ" d="M288 538h141q-18 -161 -63 -307t-95 -237q2 -61 2 -170h-135v130q0 102 -43 289.5t-90 294.5h140q47 -111 83 -390q15 23 36.5 169.5t23.5 220.5z"/>
<glyph glyph-name="delta" horiz-adv-x="479" unicode="δ" d="M166 250q0 -86 16 -128t57 -42q43 0 58 40t15 128q0 59 -19 102.5t-67 83.5q-60 -33 -60 -184zM28 250q0 85 37 147t106 89q-79 66 -79 132q0 50 39 85t124 35q89 0 145 -39v-112q-72 49 -136 49q-41 0 -41 -26q0 -23 55 -71q41 -36 66 -61t53 -62t41 -78.5t13 -89.5 q0 -262 -210 -262q-117 0 -165 64t-48 200z"/>
<glyph glyph-name="epsilon" horiz-adv-x="438" unicode="ε" d="M419 392h-132q-9 60 -61 60q-27 0 -41 -14.5t-14 -50.5q0 -32 12 -45t42 -13h58v-89h-55q-29 0 -44.5 -19t-15.5 -52q0 -89 55 -89q29 0 46 19.5t20 72.5h134q-11 -99 -61 -142.5t-147 -43.5q-86 0 -136 43.5t-50 121.5q0 55 17 89.5t59 55.5q-29 11 -46 38.5t-17 62.5 q0 72 52.5 113.5t132.5 41.5q82 0 131.5 -40t60.5 -120z"/>
<glyph glyph-name="zeta" horiz-adv-x="376" unicode="ζ" d="M389 714v-102q-122 -72 -169 -148.5t-47 -191.5v-9q1 -85 20 -128t65 -43q51 0 85.5 -37t34.5 -93q0 -40 -11 -90h-128q10 51 10 80q0 48 -40 48q-80 0 -128 70.5t-48 192.5q0 121 43.5 199.5t152.5 139.5h-162v112h322z"/>
<glyph glyph-name="eta" horiz-adv-x="500" unicode="η" d="M46 0v538h132v-63h2q42 77 137 77q137 0 137 -153v-575h-138v547q0 41 -14 58t-45 17q-73 0 -73 -89v-357h-138z"/>
<glyph glyph-name="theta" horiz-adv-x="492" unicode="θ" d="M249 738q120 0 165 -88.5t45 -280.5q0 -206 -49 -294.5t-161 -88.5q-114 0 -165 89t-51 294q0 190 46 279.5t170 89.5zM248 82q39 0 55 52.5t16 187.5v14h-144q1 -140 17 -197t56 -57zM174 417h145q-1 124 -17.5 174.5t-52.5 50.5q-39 0 -56.5 -50.5t-18.5 -174.5z"/>
<glyph glyph-name="iota" horiz-adv-x="258" unicode="ι" d="M46 117v421h139v-384q0 -37 5.5 -51t20.5 -14t37 9v-89q-41 -23 -83 -23q-56 0 -87.5 32.5t-31.5 98.5z"/>
<glyph glyph-name="kappa" horiz-adv-x="500" unicode="κ" d="M51 538h138v-201h2l139 201h152l-155 -212l178 -326h-152l-115 221l-49 -64v-157h-138v538z"/>
<glyph glyph-name="lambda" horiz-adv-x="462" unicode="λ" d="M274 94l-50 222h-1l-79 -316h-142l171 492l-22 87q-15 58 -45 58q-16 0 -51 -10v89q42 22 89 22q55 0 84 -29t50 -113l93 -364q2 -9 5.5 -24t6 -23.5t5.5 -21.5t5.5 -21t6 -17.5t6.5 -15t6.5 -10.5t7.5 -7.5t8 -2.5q14 0 36 9v-89q-43 -23 -81 -23q-50 0 -73.5 25 t-35.5 83z"/>
<glyph glyph-name="uni03BC" horiz-adv-x="509" unicode="μ" d="M450 538v-390q0 -42 3.5 -55t17.5 -13q12 0 30 7v-82q-25 -19 -70 -19q-87 0 -108 82h-2q-15 -42 -43.5 -62t-58.5 -20q-25 0 -37 12v-174h-138v714h139v-370q0 -74 51 -74q35 0 56 27t21 76v341h139z"/>
<glyph glyph-name="nu" horiz-adv-x="435" unicode="ν" d="M289 538h138q-29 -250 -139 -538h-152l-133 538h146l69 -394q15 22 37.5 160.5t33.5 233.5z"/>
<glyph glyph-name="xi" horiz-adv-x="376" unicode="ξ" d="M33 200q0 163 108 209q-42 11 -67 42.5t-25 83.5q0 97 52.5 150t139.5 53q69 0 120 -28v-107q-57 34 -99 34h-9q-66 -7 -66 -102q0 -48 18.5 -72t60.5 -24h81v-115h-80q-48 0 -71 -26.5t-23 -96.5q0 -26 2.5 -44t10.5 -30t13 -18.5t22 -11t23.5 -5.5t30.5 -4 q89 -14 89 -123q0 -47 -10 -93h-122q9 53 9 78q0 30 -9 40t-39 10q-75 0 -117.5 51t-42.5 149z"/>
<glyph glyph-name="omicron" d="M166 269q0 -48 2 -77t9 -57.5t22.5 -41.5t40.5 -13q41 0 57.5 43t16.5 146t-16.5 146t-57.5 43q-25 0 -40.5 -13t-22.5 -41.5t-9 -57.5t-2 -77zM28 269q0 143 49 213t163 70h7q115 0 160 -68.5t45 -214.5q0 -143 -49 -213t-163 -70h-7q-115 0 -160 68.5t-45 214.5z" unicode="ο"/>
<glyph glyph-name="pi" horiz-adv-x="551" unicode="π" d="M521 99v-89q-41 -23 -81 -23q-56 0 -87.5 33t-31.5 93v313h-106v-426h-139v426h-67v112h527v-112h-79v-271v-20q0 -23 5 -34t22 -11q15 0 37 9z"/>
<glyph glyph-name="rho" horiz-adv-x="494" unicode="ρ" d="M323 274q0 89 -14.5 130.5t-55.5 41.5q-45 0 -60 -42t-15 -135q0 -96 15 -136t61 -40q41 0 55 42t14 139zM40 -176v444q0 66 9.5 114.5t32.5 88.5t65 60.5t104 20.5q115 0 162.5 -72t47.5 -199q0 -48 -2.5 -84.5t-12.5 -78.5t-27.5 -69t-48.5 -45t-74 -18q-83 0 -116 66 h-2v-228h-138z"/>
<glyph glyph-name="sigma1" horiz-adv-x="444" unicode="ς" d="M286 92q58 0 87 -35t29 -90q0 -45 -11 -95h-122q9 53 9 83q0 16 -1.5 24.5t-9 14.5t-22.5 6q-217 0 -217 263q0 49 4.5 87.5t18.5 77.5t37 65t62.5 42.5t93.5 16.5q78 0 128 -39.5t62 -120.5h-132q-8 60 -63 60q-41 0 -57 -42.5t-16 -146.5q0 -91 26.5 -131t87.5 -40h6z "/>
<glyph glyph-name="sigma" horiz-adv-x="490" unicode="σ" d="M167 259q0 -99 16.5 -139t56.5 -40t57 41.5t17 137.5q0 132 -25 167h-32q-47 0 -68.5 -40t-21.5 -127zM28 259q0 135 61 207t174 72h214v-113h-88q64 -51 64 -166q0 -134 -49.5 -203.5t-163.5 -69.5q-115 0 -163.5 66t-48.5 207z"/>
<glyph glyph-name="tau" horiz-adv-x="398" unicode="τ" d="M5 427v111h385v-111h-130v-269q0 -23 1.5 -35t9 -21.5t22.5 -9.5q18 0 45 11v-94q-43 -23 -96 -23q-57 0 -88.5 34t-31.5 95v312h-117z"/>
<glyph glyph-name="upsilon" horiz-adv-x="484" unicode="υ" d="M46 538h138v-359q0 -48 13 -67.5t45 -19.5q39 0 55.5 39t16.5 144q0 167 -39 263h135q41 -98 41 -261t-48.5 -227t-170.5 -64q-93 0 -139.5 45t-46.5 149v358z"/>
<glyph glyph-name="phi" horiz-adv-x="643" unicode="φ" d="M390 458v-374q49 3 67.5 44.5t18.5 135.5t-18.5 142t-67.5 52zM390 -13v-163h-137v163q-109 4 -167 68.5t-58 208.5q0 279 226 287v114h135v-114q226 -8 226 -287q0 -272 -225 -277zM254 84v374q-50 -4 -68 -52t-18 -142t18.5 -135.5t67.5 -44.5z"/>
<glyph glyph-name="chi" horiz-adv-x="406" unicode="χ" d="M206 321l65 217h143l-133 -350l139 -364h-141l-74 225l-74 -225h-145l142 363l-129 351h141z"/>
<glyph glyph-name="psi" horiz-adv-x="650" unicode="ψ" d="M46 538h137v-289q0 -76 14 -118.5t56 -43.5v577h140v-577q86 4 86 197q0 158 -39 254h136q41 -101 41 -261q0 -131 -61.5 -204.5t-162.5 -85.5l1 -163h-141v165q-109 10 -158 66.5t-49 190.5v292z"/>
<glyph glyph-name="uni0400" horiz-adv-x="481" unicode="Ѐ" d="M336 778h-94l-98 144h138zM457 0h-408v712h398v-118h-255v-168h239v-116h-239v-192h265v-118z"/>
<glyph glyph-name="afii10023" horiz-adv-x="481" unicode="Ё" d="M106 769v118h112v-118h-112zM278 769v118h112v-118h-112zM50 714h399v-118h-255v-168h240v-118h-240v-192h265v-118h-409v714z"/>
<glyph glyph-name="afii10051" horiz-adv-x="677" unicode="Ђ" d="M638 170q0 -178 -57 -258t-197 -80h-14v108q33 0 56.5 13.5t36 32.5t19.5 52t8.5 61t1.5 70q0 102 -20.5 148t-76.5 46q-27 0 -45.5 -14t-27.5 -31t-13.5 -48t-5 -47t-0.5 -45v-178h-144v594h-149v118h480v-118h-187v-204q16 31 53 52.5t81 21.5q108 0 154.5 -71.5 t46.5 -222.5z"/>
<glyph glyph-name="afii10052" horiz-adv-x="444" unicode="Ѓ" d="M199 0h-145v712h381v-118h-236v-594zM358 897l-102 -144h-91l54 144h139z"/>
<glyph glyph-name="afii10053" horiz-adv-x="537" unicode="Є" d="M507 257q-1 -64 -11 -109.5t-35 -84.5t-72.5 -58.5t-117.5 -19.5q-42 0 -76 8t-57.5 26t-41 37t-28 50.5t-17 55.5t-9.5 63t-3.5 63.5t-0.5 65.5q0 45 1 76t6.5 73t15 71t27.5 60t43 49.5t62.5 30.5t85.5 12q118 0 169.5 -57.5t53.5 -175.5h-140q-1 69 -21 100t-62 31 q-50 0 -70.5 -47t-23.5 -153h159v-116h-160q2 -118 21 -170t74 -52q46 0 66.5 39.5t21.5 131.5h140z"/>
<glyph glyph-name="afii10054" horiz-adv-x="519" unicode="Ѕ" d="M22 223h144v-21q0 -55 20.5 -82.5t74.5 -27.5q36 0 61 23t25 65q0 69 -54 91l-107 43q-81 32 -117.5 79t-36.5 125q0 103 58 156.5t163 53.5q102 0 161.5 -47t59.5 -145v-20h-138q0 106 -78 106q-82 0 -82 -83q0 -35 15 -56.5t59 -40.5l111 -48q78 -35 107 -77.5 t29 -111.5q0 -219 -248 -219q-119 0 -173 53t-54 155v29z"/>
<glyph glyph-name="afii10055" horiz-adv-x="258" unicode="І" d="M202 0h-146v712h146v-712z"/>
<glyph glyph-name="afii10056" horiz-adv-x="258" unicode="Ї" d="M202 0h-146v712h146v-712zM99 766h-112v121h112v-121zM271 766h-112v121h112v-121z"/>
<glyph glyph-name="afii10057" horiz-adv-x="463" unicode="Ј" d="M419 229q0 -127 -44 -185.5t-167 -58.5q-104 0 -148.5 51t-44.5 163v21h133v-11q0 -29 1 -44.5t6.5 -37t19 -31.5t35.5 -10q43 0 53.5 28t10.5 102v16v480h145v-483z"/>
<glyph glyph-name="afii10058" horiz-adv-x="851" unicode="Љ" d="M678 224q0 64 -27 87.5t-87 23.5h-45v-226h41q66 0 92 25t26 90zM825 225q0 -118 -58.5 -171.5t-170.5 -53.5h-221v594h-114l-6 -274q-1 -47 -4 -81.5t-10 -75t-20 -68t-33.5 -52.5t-52.5 -37t-73 -12q-24 0 -62 7v124q20 -4 28 -4q53 0 70 44t19 189l6 358h397v-268h76 q114 0 171.5 -51t57.5 -168z"/>
<glyph glyph-name="afii10059" horiz-adv-x="837" unicode="Њ" d="M664 219q0 64 -27 86.5t-87 22.5h-45v-219h41q64 0 91 23t27 87zM811 225q0 -118 -58.5 -171.5t-170.5 -53.5h-221v315h-166v-315h-145v712h145v-275h166v275h145v-275h73q114 0 173 -48.5t59 -163.5z"/>
<glyph glyph-name="afii10060" horiz-adv-x="644" unicode="Ћ" d="M303 0h-144v594h-149v118h480v-118h-187v-156q48 10 91 10q109 0 159.5 -46.5t50.5 -146.5v-255h-145v242q0 53 -24.5 72.5t-68.5 19.5q-28 0 -63 -6v-328z"/>
<glyph glyph-name="afii10061" horiz-adv-x="537" unicode="Ќ" d="M408 897l-102 -144h-91l54 144h139zM553 0h-163l-147 290l-53 -78v-212h-141v712h141v-293l184 293h156l-194 -305z"/>
<glyph glyph-name="uni040D" horiz-adv-x="574" unicode="Ѝ" d="M353 778h-94l-98 144h138zM523 0h-145v352q0 66 6 105l-178 -457h-155v712h145v-339q0 -74 -4 -117l176 456h155v-712z"/>
<glyph glyph-name="afii10062" horiz-adv-x="520" unicode="Ў" d="M414 900q-2 -72 -39.5 -110t-108.5 -38t-108.5 38t-39.5 110h68q9 -67 80 -67t80 67h68zM2 712h158l105 -349l101 349h152l-171 -512q-39 -119 -79.5 -161.5t-134.5 -42.5q-27 0 -65 4v109q21 -3 42 -3q33 0 49 16t32 53l7 16z"/>
<glyph glyph-name="afii10145" horiz-adv-x="556" unicode="Џ" d="M506 0h-161v-161h-133v161h-162v712h145v-594h166v594h145v-712z"/>
<glyph glyph-name="afii10017" horiz-adv-x="556" unicode="А" d="M348 266l-70 318l-72 -318h142zM555 0h-151l-36 152h-181l-36 -152h-150l188 712h183z"/>
<glyph glyph-name="afii10018" horiz-adv-x="548" unicode="Б" d="M364 225q0 58 -27.5 81t-86.5 23h-55v-219h51q64 0 91 24t27 91zM511 224q0 -118 -60.5 -171t-178.5 -53h-221v712h417v-118h-273v-155h88q113 0 170.5 -49.5t57.5 -165.5z"/>
<glyph glyph-name="afii10019" horiz-adv-x="556" unicode="В" d="M372 214q0 60 -28 84t-88 24h-58v-216h58q59 0 87.5 23.5t28.5 84.5zM354 514q0 31 -8.5 50.5t-28 28t-38.5 11t-50 2.5h-31v-186h32q31 0 49 2.5t37.5 11t28.5 28.5t9 52zM520 203q0 -111 -63.5 -157t-177.5 -46h-224v712h229q214 0 214 -179q0 -60 -27.5 -101.5 t-82.5 -55.5q132 -27 132 -173z"/>
<glyph glyph-name="afii10020" horiz-adv-x="444" unicode="Г" d="M199 0h-145v712h381v-118h-236v-594z"/>
<glyph glyph-name="afii10021" horiz-adv-x="611" unicode="Д" d="M394 118v476h-113v-114q0 -229 -68 -362h181zM603 -161h-133v161h-337v-161h-133v279h57q50 96 68 191.5t18 230.5v172h393v-594h67v-279z"/>
<glyph glyph-name="afii10022" horiz-adv-x="481" unicode="Е" d="M457 0h-408v712h398v-118h-255v-168h239v-116h-239v-192h265v-118z"/>
<glyph glyph-name="afii10024" horiz-adv-x="805" unicode="Ж" d="M815 0h-156l-132 287l-54 -89v-198h-140v198l-54 89l-132 -287h-156l203 412l-179 300h149l172 -296q-3 39 -3 104v192h140v-192q0 -65 -3 -104l172 296h149l-179 -300z"/>
<glyph glyph-name="afii10025" horiz-adv-x="523" unicode="З" d="M487 210q0 -111 -61.5 -167t-175.5 -56q-116 0 -170 53.5t-54 168.5v6h140v-4q0 -57 18.5 -90.5t70.5 -33.5q40 0 62.5 29t22.5 85q0 60 -24 86t-78 26q-33 0 -46 -2v114q7 -2 27 -2q59 0 84 25t25 85q0 45 -20 68t-55 23q-68 0 -79 -67q-3 -15 -3 -41h-138v6 q0 202 222 202q104 0 159.5 -48.5t55.5 -139.5q0 -55 -28 -100.5t-78 -59.5q123 -27 123 -166z"/>
<glyph glyph-name="afii10026" horiz-adv-x="574" unicode="И" d="M523 0h-145v352q0 66 6 105l-178 -457h-155v712h145v-339q0 -74 -4 -117l176 456h155v-712z"/>
<glyph glyph-name="afii10027" horiz-adv-x="574" unicode="Й" d="M523 0h-145v352q0 66 6 105l-178 -457h-155v712h145v-339q0 -74 -4 -117l176 456h155v-712zM434 900q-2 -72 -39.5 -110t-108.5 -38t-108.5 38t-39.5 110h68q9 -67 80 -67t80 67h68z"/>
<glyph glyph-name="afii10028" horiz-adv-x="537" unicode="К" d="M553 0h-163l-147 290l-53 -78v-212h-141v712h141v-293l184 293h156l-194 -305z"/>
<glyph glyph-name="afii10029" horiz-adv-x="574" unicode="Л" d="M520 0h-145v594h-114l-6 -274q-1 -47 -4 -81.5t-10 -75t-20 -68t-33.5 -52.5t-52.5 -37t-73 -12q-24 0 -62 7v124q20 -4 28 -4q53 0 70 44t19 189l6 358h397v-712z"/>
<glyph glyph-name="afii10030" horiz-adv-x="740" unicode="М" d="M688 0h-135v568l-128 -568h-112l-128 568v-568h-133v712h212l105 -503l107 503h212v-712z"/>
<glyph glyph-name="afii10031" horiz-adv-x="556" unicode="Н" d="M506 0h-145v315h-166v-315h-145v712h145v-275h166v275h145v-712z"/>
<glyph glyph-name="afii10032" horiz-adv-x="556" unicode="О" d="M373 348q0 52 -0.5 81.5t-3.5 66.5t-9 56.5t-16.5 38.5t-26.5 26.5t-39 7.5q-26 0 -44.5 -13t-28.5 -32.5t-15 -57t-6.5 -72t-1.5 -90.5q0 -57 1.5 -94t7 -74t16 -58t28 -34t42.5 -13q32 0 51.5 15.5t29 52.5t12.5 79t3 114zM521 362q0 -49 -1 -79.5t-6 -75t-14.5 -72 t-27.5 -59t-43.5 -49.5t-64.5 -30t-89 -12q-48 0 -85.5 12t-62.5 31t-42.5 50t-27 60t-15 71t-6.5 73t-1 76q0 46 1.5 78.5t6.5 74t15 70t28 58t43.5 47.5t63.5 29.5t86 11.5t85.5 -11.5t62.5 -29t43 -47t28 -57.5t15 -69.5t6.5 -73t1.5 -77.5z"/>
<glyph glyph-name="afii10033" horiz-adv-x="556" unicode="П" d="M506 0h-145v594h-166v-594h-145v712h456v-712z"/>
<glyph glyph-name="afii10034" horiz-adv-x="519" unicode="Р" d="M347 499q0 60 -27 83.5t-88 23.5h-42v-215h46q59 0 85 23t26 85zM494 499q0 -214 -231 -214h-72v-285h-144v712h221q111 0 168.5 -50t57.5 -163z"/>
<glyph glyph-name="afii10035" horiz-adv-x="537" unicode="С" d="M507 268q0 -66 -9.5 -113.5t-34 -88t-72.5 -61t-120 -20.5q-42 0 -76 8t-57.5 26t-41 37t-28 50.5t-17 55.5t-9.5 63t-3.5 63.5t-0.5 65.5q0 45 1 76t6.5 73t15 71t27.5 60t43 49.5t62.5 30.5t85.5 12q120 0 171.5 -59.5t51.5 -181.5v-10h-140v9q0 73 -19.5 106.5 t-63.5 33.5q-57 0 -75 -60.5t-18 -207.5q0 -49 1 -81t4 -66t9 -54t16.5 -37t26 -24.5t36.5 -7.5q47 0 67.5 41.5t20.5 140.5h140z"/>
<glyph glyph-name="afii10036" d="M470 591h-157v-591h-144v591h-159v121h460v-121z" unicode="Т"/>
<glyph glyph-name="afii10037" horiz-adv-x="520" unicode="У" d="M2 712h158l105 -349l101 349h152l-171 -512q-39 -119 -79.5 -161.5t-134.5 -42.5q-27 0 -65 4v109q21 -3 42 -3q33 0 49 16t32 53l7 16z"/>
<glyph glyph-name="afii10038" horiz-adv-x="767" unicode="Ф" d="M317 195v325q-70 0 -104.5 -41.5t-34.5 -116.5q0 -78 34.5 -122.5t104.5 -44.5zM589 362q0 75 -34.5 116.5t-104.5 41.5v-325q70 0 104.5 44.5t34.5 122.5zM737 362q0 -131 -74 -204.5t-207 -73.5v-94h-145v94q-133 0 -207 73.5t-74 204.5q0 126 74.5 197.5t206.5 71.5 v91h145v-91q132 0 206.5 -71.5t74.5 -197.5z"/>
<glyph glyph-name="afii10039" horiz-adv-x="537" unicode="Х" d="M531 0h-162l-103 242l-102 -242h-158l179 363l-166 349h161l91 -232l91 232h157l-167 -350z"/>
<glyph glyph-name="afii10040" horiz-adv-x="579" unicode="Ц" d="M506 118h67v-279h-133v161h-390v712h145v-594h166v594h145v-594z"/>
<glyph glyph-name="afii10041" horiz-adv-x="537" unicode="Ч" d="M341 283q-48 -10 -94 -10q-109 0 -159.5 46.5t-50.5 146.5v246h145v-233q0 -53 24.5 -72.5t68.5 -19.5q31 0 66 6v319h145v-712h-145v283z"/>
<glyph glyph-name="afii10042" horiz-adv-x="833" unicode="Ш" d="M50 0v712h145v-594h149v594h145v-594h149v594h145v-712h-733z"/>
<glyph glyph-name="afii10043" horiz-adv-x="856" unicode="Щ" d="M50 0v712h145v-594h149v594h145v-594h149v594h145v-594h67v-279h-133v161h-667z"/>
<glyph glyph-name="afii10044" horiz-adv-x="630" unicode="Ъ" d="M457 224q0 64 -27 87.5t-87 23.5h-45v-226h41q66 0 92 25t26 90zM604 225q0 -118 -58.5 -171.5t-170.5 -53.5h-221v594h-144v118h289v-268h76q114 0 171.5 -51t57.5 -168z"/>
<glyph glyph-name="afii10045" horiz-adv-x="753" unicode="Ы" d="M353 224q0 64 -27 87.5t-87 23.5h-45v-226h41q66 0 92 25t26 90zM500 225q0 -118 -58.5 -171.5t-170.5 -53.5h-221v712h145v-268h76q114 0 171.5 -51t57.5 -168zM703 0h-145v712h145v-712z"/>
<glyph glyph-name="afii10046" horiz-adv-x="523" unicode="Ь" d="M350 224q0 64 -27 87.5t-87 23.5h-45v-226h41q66 0 92 25t26 90zM497 225q0 -118 -58.5 -171.5t-170.5 -53.5h-221v712h145v-268h76q114 0 171.5 -51t57.5 -168z"/>
<glyph glyph-name="afii10047" horiz-adv-x="537" unicode="Э" d="M507 354q0 -41 -0.5 -65.5t-3.5 -63.5t-9.5 -63t-17 -55.5t-28 -50.5t-41 -37t-57.5 -26t-76 -8q-70 0 -117.5 19.5t-72.5 58.5t-35 84.5t-11 109.5h140q1 -92 21.5 -131.5t66.5 -39.5q55 0 74 52t21 170h-160v116h159q-3 106 -23.5 153t-70.5 47q-42 0 -62 -31t-21 -100 h-140q2 118 53.5 175.5t169.5 57.5q48 0 85.5 -12t62.5 -30.5t43 -49.5t27.5 -60t15 -71t6.5 -73t1 -76z"/>
<glyph glyph-name="afii10048" horiz-adv-x="800" unicode="Ю" d="M617 348q0 52 -0.5 81.5t-3.5 66.5t-9 56.5t-16.5 38.5t-26.5 26.5t-39 7.5q-26 0 -44.5 -13t-28.5 -32.5t-15 -57t-6.5 -72t-1.5 -90.5q0 -57 1.5 -94t7 -74t16 -58t28 -34t42.5 -13q32 0 51.5 15.5t29 52.5t12.5 79t3 114zM765 362q0 -49 -1 -79.5t-6 -75t-14.5 -72 t-27.5 -59t-43.5 -49.5t-64.5 -30t-89 -12q-60 0 -104.5 19.5t-69.5 48.5t-40 75t-20 87.5t-6 96.5h-84v-312h-145v712h145v-284h85q3 66 13 114t35 93t74 68.5t121 23.5q48 0 85.5 -11.5t62.5 -29t43 -47t28 -57.5t15 -69.5t6.5 -73t1.5 -77.5z"/>
<glyph glyph-name="afii10049" horiz-adv-x="548" unicode="Я" d="M355 381v225h-56q-60 0 -87.5 -25.5t-27.5 -86.5q0 -63 26.5 -88t84.5 -25h60zM303 275l-136 -275h-163l157 292q-124 45 -124 202q0 218 226 218h235v-712h-144v275h-51z"/>
<glyph glyph-name="afii10065" horiz-adv-x="481" unicode="а" d="M297 163v108q-19 -15 -47 -25l-30 -11q-36 -13 -48 -32t-12 -48q0 -33 13 -54t39 -21q33 0 59 21t26 62zM169 373h-124v13q0 87 52 126.5t137 39.5q114 0 154.5 -41.5t40.5 -123.5v-283q0 -62 17 -104h-132q-9 16 -17 56h-2q-23 -41 -54 -55.5t-83 -14.5q-66 0 -98 46 t-32 108q0 75 32.5 111.5t111.5 58.5l63 17q36 10 49 24t13 41q0 66 -64 66t-64 -70v-15z"/>
<glyph glyph-name="afii10066" horiz-adv-x="486" unicode="б" d="M320 265q0 107 -15.5 144.5t-55.5 37.5q-41 0 -57 -40t-16 -147q0 -100 15.5 -141t55.5 -41q42 0 57.5 40t15.5 147zM444 741q-2 -41 -14 -67.5t-37.5 -41t-47.5 -20.5t-64 -14q-89 -15 -130.5 -51t-47.5 -123h4q17 52 61.5 82.5t92.5 30.5q110 0 153.5 -71t43.5 -202 q0 -66 -9 -113t-32.5 -86t-67 -58.5t-108.5 -19.5q-54 0 -92 18t-59.5 46t-33.5 75.5t-15 91.5t-3 109q0 74 8 132t28.5 113t61.5 90t100 45q83 14 96 24q7 4 9 10h103z"/>
<glyph glyph-name="afii10067" horiz-adv-x="490" unicode="в" d="M319 165q0 39 -18 54t-60 15h-59v-138h59q41 0 59.5 15t18.5 54zM306 383q0 37 -20 47.5t-66 10.5h-38v-117h39q45 0 65 10.5t20 48.5zM456 153q0 -84 -48 -118.5t-134 -34.5h-227v537h231q162 0 162 -135q0 -45 -21 -76.5t-62 -41.5q99 -21 99 -131z"/>
<glyph glyph-name="afii10068" horiz-adv-x="382" unicode="г" d="M186 430v-430h-137v537h329v-107h-192z"/>
<glyph glyph-name="afii10069" horiz-adv-x="519" unicode="д" d="M319 110v323h-85v-47q0 -68 -14 -150.5t-37 -125.5h136zM515 -145h-125v145h-262v-145h-125v255h45q57 123 57 307v120h348v-427h62v-255z"/>
<glyph glyph-name="afii10070" horiz-adv-x="463" unicode="е" d="M305 331v8q0 25 -1.5 41t-7.5 37.5t-20.5 32.5t-37.5 11q-73 0 -73 -130h140zM439 278q0 -16 -1 -29h-273v-8q0 -93 16 -129t57 -36q66 0 69 106h127q-2 -98 -53 -147t-148 -49q-52 0 -90.5 15.5t-60.5 40.5t-35 63.5t-17 76t-4 87.5q0 65 7.5 110.5t29 87t65.5 63 t110 21.5q63 0 104.5 -20.5t62 -61t27.5 -84.5t7 -107z"/>
<glyph glyph-name="afii10072" horiz-adv-x="704" unicode="ж" d="M703 0h-141l-98 217l-46 -68v-149h-132v149l-46 68l-98 -217h-141l155 320l-143 217h140l136 -221q-3 20 -3 61v160h132v-160q0 -41 -3 -61l136 221h140l-143 -217z"/>
<glyph glyph-name="afii10073" horiz-adv-x="453" unicode="з" d="M419 158q0 -84 -53 -128t-147 -44q-195 0 -195 179v10h123v-7q0 -46 15 -68.5t53 -22.5q30 0 48 22t18 57q0 41 -16 59t-51 18q-25 0 -41 -2v93q5 -1 36 -1q28 0 45.5 19t17.5 57q0 62 -54 62q-63 0 -63 -74v-7h-122v9q0 163 192 163q180 0 180 -146q0 -42 -21 -76.5 t-59 -45.5q94 -19 94 -126z"/>
<glyph glyph-name="afii10074" horiz-adv-x="519" unicode="и" d="M472 0h-133v220q0 79 5 117l-153 -337h-144v537h132v-221q0 -82 -5 -117l153 338h145v-537z"/>
<glyph glyph-name="afii10075" horiz-adv-x="519" unicode="й" d="M472 0h-133v220q0 79 5 117l-153 -337h-144v537h132v-221q0 -82 -5 -117l153 338h145v-537zM399 727q-3 -65 -41 -102.5t-99 -37.5q-64 0 -101 37.5t-39 102.5h66q4 -30 24 -48t50 -18q31 0 50 17.5t23 48.5h67z"/>
<glyph glyph-name="afii10076" horiz-adv-x="500" unicode="к" d="M505 0h-153l-108 208l-53 -74v-134h-134v537h134v-221l142 221h150l-154 -222z"/>
<glyph glyph-name="afii10077" horiz-adv-x="500" unicode="л" d="M453 0h-137v430h-94l-6 -217q-1 -57 -10.5 -98.5t-23 -64.5t-34 -36.5t-40 -17.5t-45.5 -4q-32 0 -64 8v108q15 -5 28 -5h1q12 0 18.5 2.5t16.5 11.5t15 33.5t6 63.5l10 323h359v-537z"/>
<glyph glyph-name="afii10078" horiz-adv-x="660" unicode="м" d="M611 0h-129v299q0 7 4 83h-3l-96 -382h-114l-96 382h-3q4 -27 4 -84v-298h-129v537h197l84 -359l84 359h197v-537z"/>
<glyph glyph-name="afii10079" horiz-adv-x="500" unicode="н" d="M316 227h-132v-227h-137v537h137v-196h132v196h137v-537h-137v227z"/>
<glyph glyph-name="afii10080" d="M314 272q0 107 -15.5 146.5t-57.5 39.5t-58.5 -41.5t-16.5 -149.5q0 -100 15 -143.5t58 -43.5q44 0 59.5 44.5t15.5 147.5zM452 271q0 -53 -5 -93t-19 -77.5t-38 -61.5t-63.5 -38t-93.5 -14q-53 0 -91 15.5t-59.5 40t-34 63t-16.5 75.5t-4 87t4.5 88t18 76.5t36.5 63 t62.5 40t93.5 15.5q65 0 108 -20.5t64.5 -61t29 -86.5t7.5 -112z" unicode="о"/>
<glyph glyph-name="afii10081" horiz-adv-x="500" unicode="п" d="M453 0h-137v430h-132v-430h-137v537h406v-537z"/>
<glyph glyph-name="afii10082" horiz-adv-x="500" unicode="р" d="M327 267q0 44 -2 72.5t-9 54.5t-22 38.5t-38 12.5q-25 0 -40.5 -12.5t-23 -38.5t-9.5 -52t-2 -67q0 -103 14.5 -143t57.5 -40q23 0 38.5 12t23 37t10 54t2.5 72zM466 279q0 -37 -1.5 -63t-6 -63.5t-15.5 -63.5t-28 -51t-46 -38t-67 -13q-76 0 -117 65v-228h-138v713h132 v-68q32 81 124 81q53 0 88 -25t50 -70t20 -84.5t5 -91.5z"/>
<glyph glyph-name="afii10083" horiz-adv-x="463" unicode="с" d="M439 208q-2 -115 -49 -168.5t-158 -53.5q-62 0 -104 21.5t-62.5 63.5t-28.5 87.5t-8 108.5q0 66 8.5 113.5t31 89t66.5 62.5t109 21q102 0 147.5 -50.5t47.5 -153.5h-131q0 23 -1.5 38t-7.5 33.5t-20.5 28t-36.5 9.5q-41 0 -58 -41.5t-17 -144.5t15 -147.5t60 -44.5 q37 0 53 29.5t16 98.5h128z"/>
<glyph glyph-name="afii10084" horiz-adv-x="419" unicode="т" d="M415 430h-137v-430h-137v430h-137v107h411v-107z"/>
<glyph glyph-name="afii10085" horiz-adv-x="444" unicode="у" d="M442 537l-133 -513q-23 -85 -42 -125q-19 -43 -54 -60.5t-98 -17.5q-34 0 -67 3v99q24 -2 37 -2q36 0 52.5 17.5t23.5 56.5l-154 542h145l81 -374l70 374h139z"/>
<glyph glyph-name="afii10086" horiz-adv-x="722" unicode="ф" d="M295 139v257q-16 49 -60 49q-23 0 -37.5 -12t-20.5 -39t-8 -54t-2 -73q0 -91 13.5 -133t57.5 -42q43 0 57 47zM555 267q0 46 -2 73t-8 54t-20.5 39t-37.5 12q-44 0 -60 -49v-257q14 -47 57 -47q44 0 57.5 42t13.5 133zM694 279q0 -32 -0.5 -53.5t-4 -54.5t-9.5 -56 t-18 -49t-28.5 -42t-42.5 -26.5t-59 -10.5q-36 0 -59 12.5t-44 40.5v-216h-136v216q-21 -28 -44 -40.5t-59 -12.5q-33 0 -59 10.5t-42.5 26.5t-28.5 42t-18 49t-9.5 56t-4 54.5t-0.5 53.5q0 41 2 72t11.5 71t26 66t47.5 44t74 18q67 0 104 -54v216h136v-216q37 54 104 54 q43 0 74 -18t47.5 -44t26 -66t11.5 -71t2 -72z"/>
<glyph glyph-name="afii10087" horiz-adv-x="462" unicode="х" d="M455 0h-142l-82 176l-81 -176h-143l145 278l-138 259h143l73 -162l75 162h143l-138 -259z"/>
<glyph glyph-name="afii10088" horiz-adv-x="519" unicode="ц" d="M453 110h62v-255h-125v145h-343v537h137v-427h132v427h137v-427z"/>
<glyph glyph-name="afii10089" horiz-adv-x="478" unicode="ч" d="M292 0v201q-38 -6 -91 -6q-168 0 -168 154v188h137v-179q0 -34 15 -46t45 -12q34 0 62 4v233h137v-537h-137z"/>
<glyph glyph-name="afii10090" horiz-adv-x="735" unicode="ш" d="M47 0v537h135v-427h118v427h135v-427h118v427h135v-537h-641z"/>
<glyph glyph-name="afii10091" horiz-adv-x="754" unicode="щ" d="M47 0v537h135v-427h118v427h135v-427h118v427h135v-427h62v-255h-125v145h-578z"/>
<glyph glyph-name="afii10092" horiz-adv-x="530" unicode="ъ" d="M372 177q0 42 -17 58.5t-56 16.5h-49v-149h46q42 0 59 16t17 58zM113 430h-109v107h246v-182h72q184 0 184 -174q0 -181 -180 -181h-213v430z"/>
<glyph glyph-name="afii10093" horiz-adv-x="660" unicode="ы" d="M300 177q0 42 -17 58.5t-56 16.5h-43v-149h40q42 0 59 16t17 58zM434 181q0 -181 -180 -181h-207v537h137v-182h66q184 0 184 -174zM613 0h-137v537h137v-537z"/>
<glyph glyph-name="afii10094" horiz-adv-x="463" unicode="ь" d="M306 177q0 42 -17 58.5t-56 16.5h-49v-149h46q42 0 59 16t17 58zM440 181q0 -181 -180 -181h-213v537h137v-182h72q184 0 184 -174z"/>
<glyph glyph-name="afii10095" horiz-adv-x="463" unicode="э" d="M297 230h-131v95h131q-4 74 -21.5 103.5t-55.5 29.5q-61 0 -65 -86h-131q6 91 52 136t142 45q66 0 109.5 -19.5t66 -60t31 -88.5t8.5 -118q0 -65 -8.5 -112.5t-30 -87.5t-63 -60.5t-101.5 -20.5q-104 0 -151 46.5t-55 145.5h128q3 -52 19 -75t49 -23q41 0 58 36t19 114z "/>
<glyph glyph-name="afii10096" horiz-adv-x="696" unicode="ю" d="M530 272q0 107 -15.5 146.5t-57.5 39.5t-58.5 -41.5t-16.5 -149.5q0 -100 15 -143.5t58 -43.5q44 0 59.5 44.5t15.5 147.5zM668 271q0 -53 -5 -93t-19 -77.5t-38 -61.5t-63.5 -38t-93.5 -14q-59 0 -99.5 18t-62 53t-31 74t-11.5 92h-61v-224h-137v537h137v-203h62 q8 103 55.5 160t157.5 57q65 0 108 -20.5t64.5 -61t29 -86.5t7.5 -112z"/>
<glyph glyph-name="afii10097" horiz-adv-x="486" unicode="я" d="M303 439h-56q-81 0 -81 -72q0 -38 17.5 -54t56.5 -16h63v142zM163 0h-155l124 213q-100 35 -100 154q0 86 48 128t132 42h227v-537h-137v199h-38z"/>
<glyph glyph-name="uni0450" horiz-adv-x="463" unicode="ѐ" d="M297 602h-94l-98 144h138zM305 331v8q0 25 -1.5 41t-7.5 37.5t-20.5 32.5t-37.5 11q-73 0 -73 -130h140zM439 278q0 -16 -1 -29h-273v-8q0 -93 16 -129t57 -36q66 0 69 106h127q-2 -98 -53 -147t-148 -49q-52 0 -90.5 15.5t-60.5 40.5t-35 63.5t-17 76t-4 87.5 q0 65 7.5 110.5t29 87t65.5 63t110 21.5q63 0 104.5 -20.5t62 -61t27.5 -84.5t7 -107z"/>
<glyph glyph-name="afii10071" horiz-adv-x="463" unicode="ё" d="M305 331v8q0 25 -1.5 41t-7.5 37.5t-20.5 32.5t-37.5 11q-73 0 -73 -130h140zM439 278q0 -16 -1 -29h-273v-8q0 -93 16 -129t57 -36q66 0 69 106h127q-2 -98 -53 -147t-148 -49q-52 0 -90.5 15.5t-60.5 40.5t-35 63.5t-17 76t-4 87.5q0 65 7.5 110.5t29 87t65.5 63 t110 21.5q63 0 104.5 -20.5t62 -61t27.5 -84.5t7 -107zM202 599h-113v118h113v-118zM374 599h-112v118h112v-118z"/>
<glyph glyph-name="afii10099" horiz-adv-x="500" unicode="ђ" d="M461 87q0 -62 -7.5 -105t-27.5 -82.5t-62.5 -59.5t-107.5 -20q-31 0 -43 3v99q22 -2 33 -2q44 0 60.5 28.5t16.5 114.5v140v19q0 26 -3 42t-16.5 30t-38.5 14q-35 0 -54 -25t-19 -63v-220h-136v455h-50v96h50v161h136v-161h182v-96h-182v-108q31 35 61 50.5t70 15.5 q138 0 138 -163v-163z"/>
<glyph glyph-name="afii10100" horiz-adv-x="382" unicode="ѓ" d="M186 430v-430h-137v537h329v-107h-192zM318 731l-101 -144h-91l54 144h138z"/>
<glyph glyph-name="afii10101" horiz-adv-x="463" unicode="є" d="M439 178q-8 -99 -55 -145.5t-151 -46.5q-60 0 -101.5 20.5t-63 60.5t-30 87.5t-8.5 112.5q0 70 8.5 118t31 88.5t66 60t109.5 19.5q96 0 142 -45t52 -136h-131q-4 86 -65 86q-38 0 -55 -29.5t-21 -103.5h130v-95h-130q2 -78 18.5 -114t57.5 -36q33 0 49 23t19 75h128z "/>
<glyph glyph-name="afii10102" horiz-adv-x="444" unicode="ѕ" d="M23 176h124v-18q0 -36 18.5 -57t53.5 -21q70 0 70 64q0 42 -50 61l-97 35q-115 41 -115 150q0 71 49 116.5t149 45.5q184 0 184 -153v-22h-124q0 42 -14 61.5t-47 19.5q-28 0 -46.5 -15t-18.5 -43q0 -44 60 -63l83 -28q65 -22 92 -57.5t27 -96.5q0 -82 -55 -125.5 t-145 -43.5q-111 0 -154.5 43.5t-43.5 127.5v19z"/>
<glyph glyph-name="afii10103" horiz-adv-x="240" unicode="і" d="M189 0h-138v537h138v-537zM189 599h-138v118h138v-118z"/>
<glyph glyph-name="afii10104" horiz-adv-x="240" unicode="ї" d="M189 0h-138v537h138v-537zM90 599h-112v118h112v-118zM262 599h-112v118h112v-118z"/>
<glyph glyph-name="afii10105" horiz-adv-x="240" unicode="ј" d="M194 7q0 -55 -4.5 -86t-21 -56.5t-49 -35t-86.5 -9.5q-5 0 -53 2v100q11 -1 21 -1q38 0 46.5 19t8.5 76v7v514h138v-530zM194 599h-138v118h138v-118z"/>
<glyph glyph-name="afii10106" horiz-adv-x="733" unicode="љ" d="M575 177q0 42 -17 58.5t-56 16.5h-49v-149h46q42 0 59 16t17 58zM709 181q0 -181 -180 -181h-213v430h-94l-6 -217q-1 -57 -10.5 -98.5t-23 -64.5t-34 -36.5t-40 -17.5t-45.5 -4q-32 0 -64 8v108q15 -5 28 -5h1q12 0 18.5 2.5t16.5 11.5t15 33.5t6 63.5l10 323h359v-182 h72q184 0 184 -174z"/>
<glyph glyph-name="afii10107" horiz-adv-x="733" unicode="њ" d="M575 177q0 39 -15 53.5t-51 14.5h-56v-135h53q39 0 54 14t15 53zM709 174q0 -174 -173 -174h-220v227h-132v-227h-137v537h137v-196h132v196h137v-196h79q87 0 132 -39t45 -128z"/>
<glyph glyph-name="afii10108" horiz-adv-x="500" unicode="ћ" d="M374 551v-96h-182v-108q31 35 61 50.5t70 15.5q138 0 138 -163v-250h-138v203v19q0 26 -3 42t-16.5 30t-38.5 14q-35 0 -54 -25t-19 -63v-220h-136v455h-50v96h50v161h136v-161h182z"/>
<glyph glyph-name="afii10109" horiz-adv-x="500" unicode="ќ" d="M505 0h-153l-108 208l-53 -74v-134h-134v537h134v-221l142 221h150l-154 -222zM378 731l-101 -144h-91l54 144h138z"/>
<glyph glyph-name="uni045D" horiz-adv-x="519" unicode="ѝ" d="M325 602h-94l-98 144h138zM472 0h-133v220q0 79 5 117l-153 -337h-144v537h132v-221q0 -82 -5 -117l153 338h145v-537z"/>
<glyph glyph-name="afii10110" horiz-adv-x="444" unicode="ў" d="M371 727q-3 -65 -41 -102.5t-99 -37.5q-64 0 -101 37.5t-39 102.5h66q4 -30 24 -48t50 -18q31 0 50 17.5t23 48.5h67zM442 537l-133 -513q-23 -85 -42 -125q-19 -43 -54 -60.5t-98 -17.5q-34 0 -67 3v99q24 -2 37 -2q36 0 52.5 17.5t23.5 56.5l-154 542h145l81 -374 l70 374h139z"/>
<glyph glyph-name="afii10193" horiz-adv-x="500" unicode="џ" d="M453 0h-141v-145h-125v145h-140v537h137v-427h132v427h137v-537z"/>
<glyph glyph-name="afii10146" horiz-adv-x="577" unicode="Ѣ" d="M247 323v-217h60q100 0 100 110q0 53 -26 80t-70 27h-64zM10 530v110h93v74h144v-74h132v-110h-132v-101h77q106 0 166.5 -53.5t60.5 -161.5q0 -91 -47 -152.5t-149 -61.5h-252v530h-93z"/>
<glyph glyph-name="afii10194" horiz-adv-x="507" unicode="ѣ" d="M350 162q0 38 -17 52t-56 14h-49v-132h46q43 0 59.5 13.5t16.5 52.5zM5 453v98h86v163h137v-163h146v-98h-146v-123h72q184 0 184 -162q0 -168 -180 -168h-213v453h-86z"/>
<glyph glyph-name="afii10147" horiz-adv-x="556" unicode="Ѳ" d="M278 92q56 0 76 47t22 167h-197q2 -120 22.5 -167t76.5 -47zM278 622q-56 0 -76.5 -47.5t-22.5 -167.5h197q-2 120 -22 167.5t-76 47.5zM35 357q0 73 4.5 123t19 100.5t40.5 80.5t71 48.5t108 18.5t108 -18.5t71 -48.5t40.5 -80.5t19 -100.5t4.5 -123t-4.5 -123 t-19 -100.5t-40.5 -80.5t-71 -48.5t-108 -18.5t-108 18.5t-71 48.5t-40.5 80.5t-19 100.5t-4.5 123z"/>
<glyph glyph-name="afii10195" d="M240 458q-40 0 -56 -35t-18 -104h147q-4 74 -20.5 106.5t-52.5 32.5zM240 80q36 0 53 33.5t20 110.5h-147q3 -73 18 -108.5t56 -35.5zM28 269q0 143 49 213t163 70h7q115 0 160 -68.5t45 -214.5q0 -143 -49 -213t-163 -70h-7q-115 0 -160 68.5t-45 214.5z" unicode="ѳ"/>
<glyph glyph-name="afii10148" horiz-adv-x="542" unicode="Ѵ" d="M481 552l-129 -552h-185l-164 714h154l101 -528h3l92 423q14 65 47 92t84 27q36 0 63 -8v-130q-16 6 -31 6q-25 0 -35 -44z"/>
<glyph glyph-name="afii10196" horiz-adv-x="460" unicode="ѵ" d="M407 408l-103 -408h-160l-139 538h144l77 -385h2l59 290q12 59 43 84t83 25q28 0 52 -8v-104q-13 5 -27 5q-22 0 -31 -37z"/>
<glyph glyph-name="afii10050" horiz-adv-x="444" unicode="Ґ" d="M435 594h-236v-594h-145v712h248v141h133v-259z"/>
<glyph glyph-name="afii10098" horiz-adv-x="382" unicode="ґ" d="M378 430h-192v-430h-137v537h204v145h125v-252z"/>
<glyph glyph-name="endash" horiz-adv-x="500" unicode="–" d="M0 233v112h500v-112h-500z"/>
<glyph glyph-name="emdash" horiz-adv-x="1000" unicode="—" d="M80 233v112h840v-112h-840z"/>
<glyph glyph-name="quoteleft" horiz-adv-x="260" unicode="‘" d="M64 393v130q0 88 28.5 135.5t103.5 55.5v-70q-25 -5 -38.5 -27.5t-13.5 -51.5v-16h52v-156h-132z"/>
<glyph glyph-name="quotesinglbase" horiz-adv-x="260" unicode="‚" d="M64 156h132v-130q0 -88 -28.5 -135.5t-103.5 -55.5v70q25 5 38.5 27.5t13.5 51.5v16h-52v156z"/>
<glyph glyph-name="quotedblleft" horiz-adv-x="463" unicode="“" d="M263 393v130q0 88 28.5 135.5t103.5 55.5v-70q-25 -5 -38.5 -27.5t-13.5 -51.5v-16h52v-156h-132zM68 393v130q0 88 28.5 135.5t103.5 55.5v-70q-25 -5 -38.5 -27.5t-13.5 -51.5v-16h52v-156h-132z"/>
<glyph glyph-name="quotedblright" horiz-adv-x="463" unicode="”" d="M68 558v156h132v-130q0 -88 -28.5 -135.5t-103.5 -55.5v70q25 5 38.5 27.5t13.5 51.5v16h-52zM263 558v156h132v-130q0 -88 -28.5 -135.5t-103.5 -55.5v70q25 5 38.5 27.5t13.5 51.5v16h-52z"/>
<glyph glyph-name="dagger" d="M171 516v198h138v-198h168v-112h-168v-542h-138v542h-168v112h168z" unicode="†"/>
<glyph glyph-name="daggerdbl" d="M171 -138v190h-168v112h168v248h-168v112h168v190h138v-190h168v-112h-168v-248h168v-112h-168v-190h-138z" unicode="‡"/>
<glyph glyph-name="ellipsis" horiz-adv-x="1000" unicode="…" d="M101 156h132v-156h-132v156zM434 156h132v-156h-132v156zM767 156h132v-156h-132v156z"/>
<glyph glyph-name="perthousand" horiz-adv-x="1093" unicode="‰" d="M872 181q0 -66 8 -92.5t36 -26.5t36 26.5t8 92.5q0 61 -8 86t-36 25t-36 -25t-8 -86zM766 177q0 103 30.5 147t119.5 44t119.5 -44t30.5 -147t-30.5 -147t-119.5 -44t-119.5 44t-30.5 147zM27 517q0 103 30.5 147t119.5 44t119.5 -44t30.5 -147t-30.5 -147t-119.5 -44 t-119.5 44t-30.5 147zM133 521q0 -66 8 -92.5t36 -26.5t36 26.5t8 92.5q0 61 -8 86t-36 25t-36 -25t-8 -86zM428 177q0 103 30.5 147t119.5 44t119.5 -44t30.5 -147t-30.5 -147t-119.5 -44t-119.5 44t-30.5 147zM534 181q0 -66 8 -92.5t36 -26.5t36 26.5t8 92.5q0 61 -8 86 t-36 25t-36 -25t-8 -86zM128 -31l406 756h89l-406 -756h-89z"/>
<glyph glyph-name="guilsinglleft" horiz-adv-x="241" unicode="‹" d="M46 208v162l149 120v-132l-79 -69l79 -69v-132z"/>
<glyph glyph-name="guilsinglright" horiz-adv-x="241" unicode="›" d="M46 88v132l79 69l-79 69v132l149 -120v-162z"/>
<glyph glyph-name="fraction" horiz-adv-x="167" unicode="⁄" d="M-164 -31l406 756h89l-406 -756h-89z"/>
<glyph glyph-name="Euro" d="M479 661l-46 -100q-48 51 -99 51q-57 0 -78 -49q-12 -27 -17 -98h168l-29 -78h-142v-51h132l-29 -78h-101q3 -80 13 -108q19 -61 76 -61q53 0 129 67v-125q-77 -45 -151 -45q-202 0 -210 272h-69l29 78h38l1 51h-68l30 78h41q21 246 228 246q89 0 154 -50z" unicode="€"/>
<glyph glyph-name="trademark" horiz-adv-x="990" unicode="™" d="M842 300v284h-2l-95 -284h-100l-95 284h-2v-284h-106v414h169l83 -250h2l83 250h169v-414h-106zM143 300v320h-112v94h336v-94h-112v-320h-112z"/>
<glyph glyph-name="partialdiff" horiz-adv-x="560" unicode="∂" d="M397 265l-1 24q-54 62 -122 62q-58 0 -89 -40.5t-31 -100.5q0 -57 28.5 -96t83.5 -39q63 0 97 58t34 126v6zM518 359q0 -56 -6 -105t-23.5 -99.5t-45.5 -86.5t-74 -58.5t-107 -22.5q-99 0 -160.5 64.5t-61.5 164.5q0 96 60.5 159t156.5 63q76 0 141 -53l1 26v7 q0 51 -13 96.5t-48.5 81t-87.5 35.5q-59 0 -121 -50l-62 72q45 35 85.5 51.5t92.5 16.5q74 0 129.5 -31.5t85.5 -85t44 -114.5t14 -131z"/>
<glyph glyph-name="product" horiz-adv-x="743" unicode="∏" d="M683 -214h-119v891h-385v-891h-119v1000h623v-1000z"/>
<glyph glyph-name="summation" horiz-adv-x="654" unicode="∑" d="M629 -214h-604v95l301 411l-288 400v94h579v-109h-421l272 -384l-290 -398h451v-109z"/>
<glyph glyph-name="minus" horiz-adv-x="600" unicode="−" d="M47 191v124h506v-124h-506z"/>
<glyph glyph-name="radical" horiz-adv-x="545" unicode="√" d="M557 786l-213 -1000h-110l-151 313l-51 -24l-44 93l155 71l126 -269l166 816h122z"/>
<glyph glyph-name="infinity" horiz-adv-x="823" unicode="∞" d="M352 260q-79 86 -136 86q-34 0 -55 -25t-21 -60q0 -36 21.5 -58.5t57.5 -22.5q64 0 133 80zM684 262q0 36 -22 60.5t-58 24.5q-55 0 -132 -87q73 -81 135 -81q36 0 56.5 23.5t20.5 59.5zM778 265q0 -80 -47 -133.5t-126 -53.5q-56 0 -101 29.5t-92 83.5q-29 -31 -43 -44 t-39.5 -32.5t-51.5 -27.5t-58 -8q-79 0 -127 52t-48 132q0 79 46.5 131t124.5 52q60 0 104.5 -31t91.5 -88q47 57 91.5 88.5t102.5 31.5q79 0 125.5 -51.5t46.5 -130.5z"/>
<glyph glyph-name="approxequal" horiz-adv-x="593" unicode="≈" d="M565 244q-8 -77 -43.5 -126.5t-107.5 -49.5q-41 0 -133.5 33.5t-118.5 33.5q-25 0 -41.5 -20t-20.5 -47h-75q6 74 43.5 125.5t107.5 51.5q42 0 127 -32t127 -32q50 0 61 63h74zM567 457q-8 -78 -45 -127t-111 -49q-39 0 -128.5 33t-118.5 33q-26 0 -42 -19.5t-20 -46.5 h-75q6 75 43 125t108 50q41 0 128.5 -31.5t124.5 -31.5q51 0 62 64h74z"/>
<glyph glyph-name="notequal" horiz-adv-x="593" unicode="≠" d="M559 94h-286l-78 -155l-98 50l52 105h-115v113h173l56 112h-229v113h286l78 153l99 -49l-53 -104h115v-113h-172l-56 -112h228v-113z"/>
<glyph glyph-name="lessequal" horiz-adv-x="593" unicode="≤" d="M559 -38h-525v113h525v-113zM559 106l-525 170v113l525 174v-118l-370 -112l370 -109v-118z"/>
<glyph glyph-name="greaterequal" horiz-adv-x="593" unicode="≥" d="M559 -38h-525v113h525v-113zM559 276l-525 -170v118l370 109l-370 112v118l525 -174v-113z"/>
<glyph glyph-name="lozenge" horiz-adv-x="593" unicode="◊" d="M413 356l-117 279l-116 -279l116 -280zM528 356l-180 -391h-105l-178 391l179 391h104z"/>
</font>
</defs>
</svg>
